NotoSansThai-Light.ufo
<glyph name="koKai-thai" format="2">
  <advance width="579"/>
  <unicode hex="0E01"/>
  <note>
uni0E01
</note>
  <anchor x="487" y="0" name="bottom"/>
  <anchor x="477" y="536" name="top"/>
  <outline>
    <contour>
      <point x="87" y="0" type="line"/>
      <point x="113" y="0" type="line"/>
      <point x="113" y="213" type="line" smooth="yes"/>
      <point x="113" y="285"/>
      <point x="160" y="313"/>
      <point x="213" y="319" type="curve"/>
      <point x="219" y="350" type="line"/>
      <point x="105" y="401" type="line"/>
      <point x="105" y="473"/>
      <point x="173" y="531"/>
      <point x="284" y="531" type="curve" smooth="yes"/>
      <point x="390" y="531"/>
      <point x="461" y="478"/>
      <point x="461" y="368" type="curve" smooth="yes"/>
      <point x="461" y="0" type="line"/>
      <point x="487" y="0" type="line"/>
      <point x="487" y="374" type="line" smooth="yes"/>
      <point x="487" y="492"/>
      <point x="404" y="556"/>
      <point x="284" y="556" type="curve" smooth="yes"/>
      <point x="153" y="556"/>
      <point x="78" y="481"/>
      <point x="78" y="404" type="curve" smooth="yes"/>
      <point x="78" y="385" type="line"/>
      <point x="193" y="340" type="line"/>
      <point x="192" y="337" type="line"/>
      <point x="137" y="324"/>
      <point x="87" y="292"/>
      <point x="87" y="212" type="curve" smooth="yes"/>
    </contour>
  </outline>
</glyph>
<glyph name="khoKhai-thai" format="2">
  <advance width="534"/>
  <unicode hex="0E02"/>
  <note>
uni0E02
</note>
  <anchor x="422" y="0" name="bottom"/>
  <anchor x="442" y="536" name="top"/>
  <outline>
    <contour>
      <point x="265" y="-10" type="curve" smooth="yes"/>
      <point x="378" y="-10"/>
      <point x="442" y="46"/>
      <point x="442" y="146" type="curve" smooth="yes"/>
      <point x="442" y="548" type="line"/>
      <point x="416" y="548" type="line"/>
      <point x="416" y="147" type="line" smooth="yes"/>
      <point x="416" y="67"/>
      <point x="369" y="15"/>
      <point x="266" y="15" type="curve" smooth="yes"/>
      <point x="172" y="15"/>
      <point x="113" y="58"/>
      <point x="113" y="159" type="curve" smooth="yes"/>
      <point x="113" y="243" type="line" smooth="yes"/>
      <point x="113" y="297"/>
      <point x="132" y="324"/>
      <point x="164" y="362" type="curve" smooth="yes"/>
      <point x="195" y="399"/>
      <point x="220" y="430"/>
      <point x="220" y="476" type="curve" smooth="yes"/>
      <point x="220" y="537"/>
      <point x="177" y="554"/>
      <point x="138" y="554" type="curve" smooth="yes"/>
      <point x="111" y="554"/>
      <point x="85" y="546"/>
      <point x="65" y="535" type="curve"/>
      <point x="73" y="512" type="line"/>
      <point x="85" y="518"/>
      <point x="112" y="529"/>
      <point x="139" y="529" type="curve" smooth="yes"/>
      <point x="166" y="529"/>
      <point x="194" y="518"/>
      <point x="194" y="475" type="curve" smooth="yes"/>
      <point x="194" y="440"/>
      <point x="175" y="415"/>
      <point x="143" y="377" type="curve" smooth="yes"/>
      <point x="109" y="337"/>
      <point x="87" y="307"/>
      <point x="87" y="242" type="curve" smooth="yes"/>
      <point x="87" y="158" type="line" smooth="yes"/>
      <point x="87" y="41"/>
      <point x="158" y="-10"/>
    </contour>
  </outline>
</glyph>
<glyph name="khoKhuat-thai" format="2">
  <advance width="531"/>
  <unicode hex="0E03"/>
  <anchor x="419" y="0" name="bottom"/>
  <anchor x="439" y="536" name="top"/>
  <outline>
    <contour>
      <point x="258" y="-10" type="curve" smooth="yes"/>
      <point x="372" y="-10"/>
      <point x="439" y="46"/>
      <point x="439" y="146" type="curve" smooth="yes"/>
      <point x="439" y="548" type="line"/>
      <point x="413" y="548" type="line"/>
      <point x="413" y="147" type="line" smooth="yes"/>
      <point x="413" y="67"/>
      <point x="362" y="15"/>
      <point x="259" y="15" type="curve" smooth="yes"/>
      <point x="167" y="15"/>
      <point x="108" y="56"/>
      <point x="108" y="159" type="curve" smooth="yes"/>
      <point x="108" y="239" type="line" smooth="yes"/>
      <point x="108" y="296"/>
      <point x="134" y="327"/>
      <point x="169" y="367" type="curve" smooth="yes"/>
      <point x="207" y="410"/>
      <point x="220" y="423"/>
      <point x="220" y="487" type="curve" smooth="yes"/>
      <point x="220" y="548" type="line"/>
      <point x="201" y="548" type="line"/>
      <point x="193" y="496" type="line"/>
      <point x="173" y="475"/>
      <point x="155" y="471"/>
      <point x="136" y="471" type="curve" smooth="yes"/>
      <point x="97" y="471"/>
      <point x="81" y="487"/>
      <point x="81" y="548" type="curve"/>
      <point x="56" y="548" type="line"/>
      <point x="56" y="528" type="line" smooth="yes"/>
      <point x="56" y="473"/>
      <point x="87" y="449"/>
      <point x="129" y="449" type="curve" smooth="yes"/>
      <point x="160" y="449"/>
      <point x="181" y="462"/>
      <point x="193" y="475" type="curve"/>
      <point x="196" y="474" type="line"/>
      <point x="196" y="438"/>
      <point x="187" y="425"/>
      <point x="148" y="380" type="curve" smooth="yes"/>
      <point x="115" y="342"/>
      <point x="82" y="303"/>
      <point x="82" y="243" type="curve" smooth="yes"/>
      <point x="82" y="158" type="line" smooth="yes"/>
      <point x="82" y="41"/>
      <point x="150" y="-10"/>
    </contour>
  </outline>
</glyph>
<glyph name="khoKhwai-thai" format="2">
  <advance width="602"/>
  <unicode hex="0E04"/>
  <note>
uni0E04
</note>
  <anchor x="510" y="0" name="bottom"/>
  <anchor x="500" y="536" name="top"/>
  <outline>
    <contour>
      <point x="92" y="0" type="line"/>
      <point x="118" y="0" type="line"/>
      <point x="118" y="136" type="line" smooth="yes"/>
      <point x="118" y="222"/>
      <point x="184" y="271"/>
      <point x="280" y="271" type="curve" smooth="yes"/>
      <point x="331" y="271" type="line"/>
      <point x="331" y="296" type="line"/>
      <point x="277" y="296" type="line" smooth="yes"/>
      <point x="195" y="296"/>
      <point x="148" y="264"/>
      <point x="121" y="218" type="curve"/>
      <point x="118" y="219" type="line"/>
      <point x="118" y="367" type="line" smooth="yes"/>
      <point x="118" y="475"/>
      <point x="188" y="531"/>
      <point x="301" y="531" type="curve" smooth="yes"/>
      <point x="414" y="531"/>
      <point x="484" y="475"/>
      <point x="484" y="367" type="curve" smooth="yes"/>
      <point x="484" y="0" type="line"/>
      <point x="510" y="0" type="line"/>
      <point x="510" y="369" type="line" smooth="yes"/>
      <point x="510" y="489"/>
      <point x="430" y="556"/>
      <point x="301" y="556" type="curve" smooth="yes"/>
      <point x="172" y="556"/>
      <point x="92" y="489"/>
      <point x="92" y="369" type="curve" smooth="yes"/>
    </contour>
  </outline>
</glyph>
<glyph name="khoKhon-thai" format="2">
  <advance width="608"/>
  <unicode hex="0E05"/>
  <anchor x="516" y="0" name="bottom"/>
  <anchor x="506" y="536" name="top"/>
  <outline>
    <contour>
      <point x="92" y="0" type="line"/>
      <point x="118" y="0" type="line"/>
      <point x="118" y="136" type="line" smooth="yes"/>
      <point x="118" y="222"/>
      <point x="187" y="271"/>
      <point x="283" y="271" type="curve" smooth="yes"/>
      <point x="334" y="271" type="line"/>
      <point x="334" y="296" type="line"/>
      <point x="280" y="296" type="line" smooth="yes"/>
      <point x="198" y="296"/>
      <point x="148" y="264"/>
      <point x="121" y="218" type="curve"/>
      <point x="118" y="219" type="line"/>
      <point x="118" y="429" type="line" smooth="yes"/>
      <point x="118" y="502"/>
      <point x="155" y="532"/>
      <point x="205" y="532" type="curve" smooth="yes"/>
      <point x="253" y="532"/>
      <point x="287" y="504"/>
      <point x="292" y="461" type="curve"/>
      <point x="316" y="461" type="line"/>
      <point x="321" y="504"/>
      <point x="355" y="532"/>
      <point x="403" y="532" type="curve" smooth="yes"/>
      <point x="453" y="532"/>
      <point x="490" y="502"/>
      <point x="490" y="429" type="curve" smooth="yes"/>
      <point x="490" y="0" type="line"/>
      <point x="516" y="0" type="line"/>
      <point x="516" y="432" type="line" smooth="yes"/>
      <point x="516" y="518"/>
      <point x="470" y="556"/>
      <point x="406" y="556" type="curve" smooth="yes"/>
      <point x="354" y="556"/>
      <point x="316" y="529"/>
      <point x="306" y="493" type="curve"/>
      <point x="302" y="493" type="line"/>
      <point x="292" y="529"/>
      <point x="254" y="556"/>
      <point x="202" y="556" type="curve" smooth="yes"/>
      <point x="138" y="556"/>
      <point x="92" y="518"/>
      <point x="92" y="432" type="curve" smooth="yes"/>
    </contour>
  </outline>
</glyph>
<glyph name="khoRakhang-thai" format="2">
  <advance width="586"/>
  <unicode hex="0E06"/>
  <anchor x="474" y="0" name="bottom"/>
  <anchor x="494" y="536" name="top"/>
  <outline>
    <contour>
      <point x="310" y="-10" type="curve" smooth="yes"/>
      <point x="415" y="-10"/>
      <point x="494" y="46"/>
      <point x="494" y="165" type="curve" smooth="yes"/>
      <point x="494" y="548" type="line"/>
      <point x="468" y="548" type="line"/>
      <point x="468" y="168" type="line" smooth="yes"/>
      <point x="468" y="68"/>
      <point x="407" y="15"/>
      <point x="311" y="15" type="curve" smooth="yes"/>
      <point x="190" y="15"/>
      <point x="110" y="98"/>
      <point x="110" y="206" type="curve" smooth="yes"/>
      <point x="110" y="235" type="line" smooth="yes"/>
      <point x="110" y="292"/>
      <point x="134" y="324"/>
      <point x="171" y="367" type="curve" smooth="yes"/>
      <point x="209" y="411"/>
      <point x="226" y="429"/>
      <point x="226" y="487" type="curve" smooth="yes"/>
      <point x="226" y="548" type="line"/>
      <point x="207" y="548" type="line"/>
      <point x="199" y="496" type="line"/>
      <point x="179" y="475"/>
      <point x="161" y="471"/>
      <point x="142" y="471" type="curve" smooth="yes"/>
      <point x="103" y="471"/>
      <point x="87" y="487"/>
      <point x="87" y="548" type="curve"/>
      <point x="62" y="548" type="line"/>
      <point x="62" y="528" type="line" smooth="yes"/>
      <point x="62" y="473"/>
      <point x="93" y="449"/>
      <point x="135" y="449" type="curve" smooth="yes"/>
      <point x="166" y="449"/>
      <point x="187" y="462"/>
      <point x="199" y="475" type="curve"/>
      <point x="202" y="474" type="line"/>
      <point x="202" y="439"/>
      <point x="190" y="426"/>
      <point x="150" y="380" type="curve" smooth="yes"/>
      <point x="117" y="342"/>
      <point x="84" y="299"/>
      <point x="84" y="239" type="curve" smooth="yes"/>
      <point x="84" y="0" type="line"/>
      <point x="107" y="0" type="line"/>
      <point x="111" y="105" type="line"/>
      <point x="115" y="105" type="line"/>
      <point x="149" y="37"/>
      <point x="213" y="-10"/>
    </contour>
  </outline>
</glyph>
<glyph name="ngoNgu-thai" format="2">
  <advance width="523"/>
  <unicode hex="0E07"/>
  <note>
uni0E07
</note>
  <anchor x="344" y="0" name="bottom"/>
  <anchor x="424" y="536" name="top"/>
  <outline>
    <contour>
      <point x="186" y="0" type="line"/>
      <point x="213" y="0" type="line" smooth="yes"/>
      <point x="276" y="0"/>
      <point x="328" y="19"/>
      <point x="366" y="51" type="curve" smooth="yes"/>
      <point x="427" y="103"/>
      <point x="457" y="189"/>
      <point x="457" y="298" type="curve" smooth="yes"/>
      <point x="457" y="375"/>
      <point x="444" y="443"/>
      <point x="406" y="489" type="curve" smooth="yes"/>
      <point x="373" y="529"/>
      <point x="325" y="553"/>
      <point x="258" y="553" type="curve" smooth="yes"/>
      <point x="243" y="553"/>
      <point x="218" y="551"/>
      <point x="202" y="545" type="curve"/>
      <point x="210" y="521" type="line"/>
      <point x="219" y="524"/>
      <point x="242" y="528"/>
      <point x="257" y="528" type="curve" smooth="yes"/>
      <point x="370" y="528"/>
      <point x="431" y="445"/>
      <point x="431" y="301" type="curve" smooth="yes"/>
      <point x="431" y="202"/>
      <point x="402" y="115"/>
      <point x="346" y="70" type="curve" smooth="yes"/>
      <point x="310" y="41"/>
      <point x="271" y="25"/>
      <point x="222" y="25" type="curve" smooth="yes"/>
      <point x="206" y="25" type="line"/>
      <point x="44" y="548" type="line"/>
      <point x="17" y="548" type="line"/>
    </contour>
  </outline>
</glyph>
<glyph name="choChan-thai" format="2">
  <advance width="518"/>
  <unicode hex="0E08"/>
  <anchor x="380" y="0" name="bottom"/>
  <anchor x="430" y="536" name="top"/>
  <outline>
    <contour>
      <point x="170" y="0" type="line"/>
      <point x="198" y="0" type="line" smooth="yes"/>
      <point x="360" y="0"/>
      <point x="444" y="71"/>
      <point x="444" y="274" type="curve" smooth="yes"/>
      <point x="444" y="470"/>
      <point x="385" y="556"/>
      <point x="226" y="556" type="curve" smooth="yes"/>
      <point x="153" y="556"/>
      <point x="87" y="531"/>
      <point x="49" y="511" type="curve"/>
      <point x="49" y="482" type="line"/>
      <point x="102" y="512"/>
      <point x="159" y="531"/>
      <point x="219" y="531" type="curve" smooth="yes"/>
      <point x="359" y="531"/>
      <point x="416" y="464"/>
      <point x="416" y="275" type="curve" smooth="yes"/>
      <point x="416" y="82"/>
      <point x="330" y="25"/>
      <point x="211" y="25" type="curve" smooth="yes"/>
      <point x="196" y="25" type="line"/>
      <point x="196" y="300" type="line"/>
      <point x="96" y="300" type="line"/>
      <point x="96" y="277" type="line"/>
      <point x="170" y="277" type="line"/>
    </contour>
  </outline>
</glyph>
<glyph name="choChing-thai" format="2">
  <advance width="594"/>
  <unicode hex="0E09"/>
  <anchor x="502" y="0" name="bottom"/>
  <anchor x="492" y="536" name="top"/>
  <outline>
    <contour>
      <point x="271" y="-10" type="curve" smooth="yes"/>
      <point x="371" y="-10"/>
      <point x="435" y="29"/>
      <point x="471" y="99" type="curve"/>
      <point x="475" y="99" type="line"/>
      <point x="478" y="0" type="line"/>
      <point x="502" y="0" type="line"/>
      <point x="502" y="347" type="line" smooth="yes"/>
      <point x="502" y="500"/>
      <point x="416" y="556"/>
      <point x="285" y="556" type="curve" smooth="yes"/>
      <point x="205" y="556"/>
      <point x="137" y="534"/>
      <point x="100" y="513" type="curve"/>
      <point x="100" y="484" type="line"/>
      <point x="153" y="515"/>
      <point x="214" y="531"/>
      <point x="276" y="531" type="curve" smooth="yes"/>
      <point x="412" y="531"/>
      <point x="476" y="476"/>
      <point x="476" y="340" type="curve" smooth="yes"/>
      <point x="476" y="206" type="line" smooth="yes"/>
      <point x="476" y="90"/>
      <point x="397" y="15"/>
      <point x="279" y="15" type="curve" smooth="yes"/>
      <point x="177" y="15"/>
      <point x="118" y="74"/>
      <point x="118" y="173" type="curve" smooth="yes"/>
      <point x="118" y="313" type="line"/>
      <point x="92" y="313" type="line"/>
      <point x="92" y="170" type="line" smooth="yes"/>
      <point x="92" y="51"/>
      <point x="170" y="-10"/>
    </contour>
  </outline>
</glyph>
<glyph name="choChang-thai" format="2">
  <advance width="531"/>
  <unicode hex="0E0A"/>
  <anchor x="418" y="0" name="bottom"/>
  <anchor x="454" y="536" name="top"/>
  <outline>
    <contour>
      <point x="263" y="-10" type="curve" smooth="yes"/>
      <point x="373" y="-10"/>
      <point x="438" y="46"/>
      <point x="438" y="146" type="curve" smooth="yes"/>
      <point x="438" y="312" type="line" smooth="yes"/>
      <point x="438" y="356"/>
      <point x="422" y="390"/>
      <point x="371" y="409" type="curve"/>
      <point x="371" y="412" type="line"/>
      <point x="421" y="432"/>
      <point x="445" y="472"/>
      <point x="445" y="548" type="curve"/>
      <point x="419" y="548" type="line"/>
      <point x="419" y="476"/>
      <point x="392" y="422"/>
      <point x="322" y="422" type="curve" smooth="yes"/>
      <point x="305" y="422" type="line"/>
      <point x="305" y="400" type="line"/>
      <point x="321" y="400" type="line" smooth="yes"/>
      <point x="369" y="400"/>
      <point x="412" y="371"/>
      <point x="412" y="311" type="curve" smooth="yes"/>
      <point x="412" y="147" type="line" smooth="yes"/>
      <point x="412" y="67"/>
      <point x="364" y="15"/>
      <point x="263" y="15" type="curve" smooth="yes"/>
      <point x="167" y="15"/>
      <point x="109" y="58"/>
      <point x="109" y="159" type="curve" smooth="yes"/>
      <point x="109" y="243" type="line" smooth="yes"/>
      <point x="109" y="297"/>
      <point x="128" y="324"/>
      <point x="160" y="362" type="curve" smooth="yes"/>
      <point x="191" y="399"/>
      <point x="216" y="429"/>
      <point x="216" y="477" type="curve" smooth="yes"/>
      <point x="216" y="537"/>
      <point x="171" y="554"/>
      <point x="137" y="554" type="curve" smooth="yes"/>
      <point x="109" y="554"/>
      <point x="85" y="547"/>
      <point x="65" y="537" type="curve"/>
      <point x="73" y="514" type="line"/>
      <point x="85" y="520"/>
      <point x="110" y="529"/>
      <point x="131" y="529" type="curve" smooth="yes"/>
      <point x="164" y="529"/>
      <point x="190" y="518"/>
      <point x="190" y="474" type="curve" smooth="yes"/>
      <point x="190" y="442"/>
      <point x="171" y="414"/>
      <point x="139" y="377" type="curve" smooth="yes"/>
      <point x="107" y="340"/>
      <point x="83" y="308"/>
      <point x="83" y="242" type="curve" smooth="yes"/>
      <point x="83" y="158" type="line" smooth="yes"/>
      <point x="83" y="41"/>
      <point x="153" y="-10"/>
    </contour>
  </outline>
</glyph>
<glyph name="soSo-thai" format="2">
  <advance width="536"/>
  <unicode hex="0E0B"/>
  <note>
uni0E0B
</note>
  <anchor x="423" y="0" name="bottom"/>
  <anchor x="449" y="536" name="top"/>
  <outline>
    <contour>
      <point x="264" y="-10" type="curve" smooth="yes"/>
      <point x="375" y="-10"/>
      <point x="443" y="46"/>
      <point x="443" y="146" type="curve" smooth="yes"/>
      <point x="443" y="312" type="line" smooth="yes"/>
      <point x="443" y="356"/>
      <point x="425" y="391"/>
      <point x="374" y="410" type="curve"/>
      <point x="374" y="413" type="line"/>
      <point x="426" y="432"/>
      <point x="450" y="472"/>
      <point x="450" y="548" type="curve"/>
      <point x="424" y="548" type="line"/>
      <point x="424" y="476"/>
      <point x="397" y="422"/>
      <point x="327" y="422" type="curve" smooth="yes"/>
      <point x="310" y="422" type="line"/>
      <point x="310" y="400" type="line"/>
      <point x="326" y="400" type="line" smooth="yes"/>
      <point x="374" y="400"/>
      <point x="417" y="371"/>
      <point x="417" y="311" type="curve" smooth="yes"/>
      <point x="417" y="147" type="line" smooth="yes"/>
      <point x="417" y="67"/>
      <point x="366" y="15"/>
      <point x="264" y="15" type="curve" smooth="yes"/>
      <point x="171" y="15"/>
      <point x="112" y="56"/>
      <point x="112" y="159" type="curve" smooth="yes"/>
      <point x="112" y="242" type="line" smooth="yes"/>
      <point x="112" y="294"/>
      <point x="131" y="325"/>
      <point x="169" y="367" type="curve" smooth="yes"/>
      <point x="207" y="410"/>
      <point x="220" y="423"/>
      <point x="220" y="487" type="curve" smooth="yes"/>
      <point x="220" y="548" type="line"/>
      <point x="201" y="548" type="line"/>
      <point x="193" y="496" type="line"/>
      <point x="176" y="478"/>
      <point x="158" y="471"/>
      <point x="138" y="471" type="curve" smooth="yes"/>
      <point x="97" y="471"/>
      <point x="81" y="485"/>
      <point x="81" y="548" type="curve"/>
      <point x="56" y="548" type="line"/>
      <point x="56" y="528" type="line" smooth="yes"/>
      <point x="56" y="473"/>
      <point x="87" y="449"/>
      <point x="130" y="449" type="curve" smooth="yes"/>
      <point x="160" y="449"/>
      <point x="181" y="462"/>
      <point x="193" y="475" type="curve"/>
      <point x="196" y="474" type="line"/>
      <point x="196" y="439"/>
      <point x="186" y="423"/>
      <point x="148" y="380" type="curve" smooth="yes"/>
      <point x="115" y="342"/>
      <point x="86" y="303"/>
      <point x="86" y="243" type="curve" smooth="yes"/>
      <point x="86" y="158" type="line" smooth="yes"/>
      <point x="86" y="41"/>
      <point x="153" y="-10"/>
    </contour>
  </outline>
</glyph>
<glyph name="choChoe-thai" format="2">
  <advance width="890"/>
  <unicode hex="0E0C"/>
  <anchor x="777" y="0" name="bottom"/>
  <anchor x="797" y="536" name="top"/>
  <outline>
    <contour>
      <point x="192" y="-7" type="curve" smooth="yes"/>
      <point x="215" y="-7"/>
      <point x="233" y="-3"/>
      <point x="253" y="5" type="curve"/>
      <point x="247" y="28" type="line"/>
      <point x="232" y="22"/>
      <point x="210" y="17"/>
      <point x="190" y="17" type="curve" smooth="yes"/>
      <point x="146" y="17"/>
      <point x="116" y="40"/>
      <point x="116" y="89" type="curve" smooth="yes"/>
      <point x="116" y="213" type="line" smooth="yes"/>
      <point x="116" y="285"/>
      <point x="159" y="313"/>
      <point x="212" y="319" type="curve"/>
      <point x="218" y="350" type="line"/>
      <point x="104" y="401" type="line"/>
      <point x="104" y="478"/>
      <point x="171" y="531"/>
      <point x="272" y="531" type="curve" smooth="yes"/>
      <point x="368" y="531"/>
      <point x="438" y="483"/>
      <point x="438" y="368" type="curve" smooth="yes"/>
      <point x="438" y="0" type="line"/>
      <point x="462" y="0" type="line"/>
      <point x="465" y="95" type="line"/>
      <point x="469" y="95" type="line"/>
      <point x="501" y="30"/>
      <point x="559" y="-10"/>
      <point x="640" y="-10" type="curve" smooth="yes"/>
      <point x="734" y="-10"/>
      <point x="798" y="43"/>
      <point x="798" y="152" type="curve" smooth="yes"/>
      <point x="798" y="548" type="line"/>
      <point x="772" y="548" type="line"/>
      <point x="772" y="156" type="line" smooth="yes"/>
      <point x="772" y="66"/>
      <point x="722" y="15"/>
      <point x="639" y="15" type="curve" smooth="yes"/>
      <point x="536" y="15"/>
      <point x="464" y="93"/>
      <point x="464" y="196" type="curve" smooth="yes"/>
      <point x="464" y="374" type="line" smooth="yes"/>
      <point x="464" y="497"/>
      <point x="382" y="556"/>
      <point x="272" y="556" type="curve" smooth="yes"/>
      <point x="151" y="556"/>
      <point x="77" y="486"/>
      <point x="77" y="404" type="curve" smooth="yes"/>
      <point x="77" y="385" type="line"/>
      <point x="192" y="340" type="line"/>
      <point x="191" y="337" type="line"/>
      <point x="136" y="324"/>
      <point x="90" y="292"/>
      <point x="90" y="212" type="curve" smooth="yes"/>
      <point x="90" y="88" type="line" smooth="yes"/>
      <point x="90" y="20"/>
      <point x="133" y="-7"/>
    </contour>
  </outline>
</glyph>
<glyph name="yoYing-thai" format="2">
  <advance width="898"/>
  <unicode hex="0E0D"/>
  <anchor x="794" y="-100" name="bottom"/>
  <anchor x="794" y="536" name="top"/>
  <outline>
    <contour>
      <point x="604" y="-148" type="curve" smooth="yes"/>
      <point x="716" y="-148"/>
      <point x="794" y="-101"/>
      <point x="794" y="35" type="curve" smooth="yes"/>
      <point x="794" y="548" type="line"/>
      <point x="768" y="548" type="line"/>
      <point x="768" y="206" type="line" smooth="yes"/>
      <point x="768" y="102"/>
      <point x="694" y="25"/>
      <point x="592" y="25" type="curve" smooth="yes"/>
      <point x="509" y="25"/>
      <point x="460" y="76"/>
      <point x="460" y="166" type="curve" smooth="yes"/>
      <point x="460" y="374" type="line" smooth="yes"/>
      <point x="460" y="499"/>
      <point x="380" y="556"/>
      <point x="270" y="556" type="curve" smooth="yes"/>
      <point x="151" y="556"/>
      <point x="77" y="488"/>
      <point x="77" y="404" type="curve" smooth="yes"/>
      <point x="77" y="385" type="line"/>
      <point x="192" y="340" type="line"/>
      <point x="191" y="337" type="line"/>
      <point x="136" y="324"/>
      <point x="90" y="292"/>
      <point x="90" y="212" type="curve" smooth="yes"/>
      <point x="90" y="88" type="line" smooth="yes"/>
      <point x="90" y="20"/>
      <point x="133" y="-7"/>
      <point x="192" y="-7" type="curve" smooth="yes"/>
      <point x="215" y="-7"/>
      <point x="233" y="-3"/>
      <point x="253" y="5" type="curve"/>
      <point x="247" y="28" type="line"/>
      <point x="232" y="22"/>
      <point x="210" y="17"/>
      <point x="190" y="17" type="curve" smooth="yes"/>
      <point x="146" y="17"/>
      <point x="116" y="40"/>
      <point x="116" y="89" type="curve" smooth="yes"/>
      <point x="116" y="213" type="line" smooth="yes"/>
      <point x="116" y="285"/>
      <point x="159" y="313"/>
      <point x="212" y="319" type="curve"/>
      <point x="218" y="350" type="line"/>
      <point x="104" y="401" type="line"/>
      <point x="104" y="480"/>
      <point x="170" y="531"/>
      <point x="270" y="531" type="curve" smooth="yes"/>
      <point x="365" y="531"/>
      <point x="434" y="485"/>
      <point x="434" y="368" type="curve" smooth="yes"/>
      <point x="434" y="162" type="line" smooth="yes"/>
      <point x="434" y="53"/>
      <point x="493" y="0"/>
      <point x="590" y="0" type="curve" smooth="yes"/>
      <point x="677" y="0"/>
      <point x="734" y="43"/>
      <point x="764" y="100" type="curve"/>
      <point x="768" y="100" type="line"/>
      <point x="768" y="38" type="line" smooth="yes"/>
      <point x="768" y="-87"/>
      <point x="695" y="-123"/>
      <point x="605" y="-123" type="curve" smooth="yes"/>
      <point x="549" y="-123"/>
      <point x="497" y="-109"/>
      <point x="454" y="-86" type="curve"/>
      <point x="454" y="-115" type="line"/>
      <point x="499" y="-136"/>
      <point x="548" y="-148"/>
    </contour>
  </outline>
</glyph>
<glyph name="toPatak-thai" format="2">
  <advance width="577"/>
  <unicode hex="0E0F"/>
  <anchor x="485" y="-174" name="bottom"/>
  <anchor x="475" y="536" name="top"/>
  <outline>
    <contour>
      <point x="80" y="-190" type="line"/>
      <point x="106" y="-190" type="line"/>
      <point x="106" y="-180" type="line" smooth="yes"/>
      <point x="106" y="-135"/>
      <point x="126" y="-105"/>
      <point x="172" y="-105" type="curve" smooth="yes"/>
      <point x="223" y="-105"/>
      <point x="259" y="-145"/>
      <point x="282" y="-190" type="curve"/>
      <point x="292" y="-190" type="line"/>
      <point x="376" y="-114" type="line"/>
      <point x="462" y="-190" type="line"/>
      <point x="485" y="-190" type="line"/>
      <point x="485" y="374" type="line" smooth="yes"/>
      <point x="485" y="492"/>
      <point x="403" y="556"/>
      <point x="283" y="556" type="curve" smooth="yes"/>
      <point x="152" y="556"/>
      <point x="78" y="481"/>
      <point x="78" y="404" type="curve" smooth="yes"/>
      <point x="78" y="385" type="line"/>
      <point x="193" y="340" type="line"/>
      <point x="192" y="337" type="line"/>
      <point x="137" y="324"/>
      <point x="98" y="292"/>
      <point x="98" y="212" type="curve" smooth="yes"/>
      <point x="98" y="64" type="line" smooth="yes"/>
      <point x="98" y="32"/>
      <point x="92" y="18"/>
      <point x="67" y="18" type="curve" smooth="yes"/>
      <point x="56" y="18"/>
      <point x="46" y="21"/>
      <point x="37" y="25" type="curve"/>
      <point x="30" y="2" type="line"/>
      <point x="43" y="-4"/>
      <point x="58" y="-7"/>
      <point x="70" y="-7" type="curve" smooth="yes"/>
      <point x="102" y="-7"/>
      <point x="124" y="10"/>
      <point x="124" y="59" type="curve" smooth="yes"/>
      <point x="124" y="213" type="line" smooth="yes"/>
      <point x="124" y="285"/>
      <point x="160" y="313"/>
      <point x="213" y="319" type="curve"/>
      <point x="219" y="350" type="line"/>
      <point x="105" y="401" type="line"/>
      <point x="105" y="473"/>
      <point x="172" y="531"/>
      <point x="282" y="531" type="curve" smooth="yes"/>
      <point x="389" y="531"/>
      <point x="459" y="478"/>
      <point x="459" y="368" type="curve" smooth="yes"/>
      <point x="459" y="-171" type="line"/>
      <point x="470" y="-167" type="line"/>
      <point x="376" y="-84" type="line"/>
      <point x="291" y="-162" type="line"/>
      <point x="266" y="-118"/>
      <point x="227" y="-80"/>
      <point x="170" y="-80" type="curve" smooth="yes"/>
      <point x="114" y="-80"/>
      <point x="80" y="-118"/>
      <point x="80" y="-176" type="curve" smooth="yes"/>
    </contour>
  </outline>
</glyph>
<glyph name="thoThan-thai" format="2">
  <advance width="532"/>
  <unicode hex="0E10"/>
  <anchor x="434" y="-160" name="bottom"/>
  <anchor x="448" y="536" name="top"/>
  <outline>
    <contour>
      <point x="166" y="0" type="line"/>
      <point x="194" y="0" type="line" smooth="yes"/>
      <point x="356" y="0"/>
      <point x="440" y="71"/>
      <point x="440" y="274" type="curve" smooth="yes"/>
      <point x="440" y="375"/>
      <point x="424" y="447"/>
      <point x="385" y="493" type="curve" smooth="yes"/>
      <point x="351" y="534"/>
      <point x="299" y="556"/>
      <point x="222" y="556" type="curve" smooth="yes"/>
      <point x="149" y="556"/>
      <point x="83" y="531"/>
      <point x="45" y="511" type="curve"/>
      <point x="45" y="482" type="line"/>
      <point x="98" y="512"/>
      <point x="155" y="531"/>
      <point x="215" y="531" type="curve" smooth="yes"/>
      <point x="355" y="531"/>
      <point x="412" y="464"/>
      <point x="412" y="275" type="curve" smooth="yes"/>
      <point x="412" y="82"/>
      <point x="326" y="25"/>
      <point x="207" y="25" type="curve" smooth="yes"/>
      <point x="192" y="25" type="line"/>
      <point x="192" y="300" type="line"/>
      <point x="92" y="300" type="line"/>
      <point x="92" y="277" type="line"/>
      <point x="166" y="277" type="line"/>
    </contour>
    <contour>
      <point x="66" y="-190" type="line"/>
      <point x="92" y="-190" type="line"/>
      <point x="92" y="-180" type="line" smooth="yes"/>
      <point x="92" y="-135"/>
      <point x="108" y="-105"/>
      <point x="151" y="-105" type="curve" smooth="yes"/>
      <point x="196" y="-105"/>
      <point x="227" y="-148"/>
      <point x="252" y="-190" type="curve"/>
      <point x="262" y="-190" type="line"/>
      <point x="336" y="-116" type="line"/>
      <point x="411" y="-190" type="line"/>
      <point x="434" y="-190" type="line"/>
      <point x="434" y="-65" type="line"/>
      <point x="408" y="-65" type="line"/>
      <point x="408" y="-169" type="line"/>
      <point x="416" y="-165" type="line"/>
      <point x="336" y="-84" type="line"/>
      <point x="260" y="-161" type="line"/>
      <point x="235" y="-119"/>
      <point x="205" y="-80"/>
      <point x="149" y="-80" type="curve" smooth="yes"/>
      <point x="96" y="-80"/>
      <point x="66" y="-118"/>
      <point x="66" y="-176" type="curve" smooth="yes"/>
    </contour>
    <contour>
      <point x="379" y="479" type="line"/>
      <point x="438" y="493"/>
      <point x="482" y="528"/>
      <point x="482" y="584" type="curve"/>
      <point x="454" y="584" type="line"/>
      <point x="454" y="533"/>
      <point x="415" y="509"/>
      <point x="365" y="498" type="curve"/>
    </contour>
  </outline>
</glyph>
<glyph name="thoNangmontho-thai" format="2">
  <advance width="609"/>
  <unicode hex="0E11"/>
  <anchor x="517" y="0" name="bottom"/>
  <anchor x="507" y="536" name="top"/>
  <outline>
    <contour>
      <point x="103" y="0" type="line"/>
      <point x="129" y="0" type="line"/>
      <point x="129" y="236" type="line" smooth="yes"/>
      <point x="129" y="314"/>
      <point x="139" y="330"/>
      <point x="184" y="387" type="curve" smooth="yes"/>
      <point x="258" y="480"/>
      <point x="308" y="532"/>
      <point x="384" y="532" type="curve" smooth="yes"/>
      <point x="446" y="532"/>
      <point x="491" y="498"/>
      <point x="491" y="427" type="curve" smooth="yes"/>
      <point x="491" y="0" type="line"/>
      <point x="517" y="0" type="line"/>
      <point x="517" y="436" type="line" smooth="yes"/>
      <point x="517" y="510"/>
      <point x="466" y="556"/>
      <point x="385" y="556" type="curve" smooth="yes"/>
      <point x="309" y="556"/>
      <point x="265" y="517"/>
      <point x="226" y="475" type="curve"/>
      <point x="221" y="475" type="line"/>
      <point x="221" y="548" type="line"/>
      <point x="202" y="548" type="line"/>
      <point x="194" y="496" type="line"/>
      <point x="175" y="478"/>
      <point x="159" y="471"/>
      <point x="134" y="471" type="curve" smooth="yes"/>
      <point x="97" y="471"/>
      <point x="81" y="487"/>
      <point x="81" y="548" type="curve"/>
      <point x="56" y="548" type="line"/>
      <point x="56" y="528" type="line" smooth="yes"/>
      <point x="56" y="473"/>
      <point x="87" y="449"/>
      <point x="129" y="449" type="curve" smooth="yes"/>
      <point x="160" y="449"/>
      <point x="181" y="462"/>
      <point x="193" y="475" type="curve"/>
      <point x="196" y="474" type="line"/>
      <point x="196" y="441"/>
      <point x="183" y="423"/>
      <point x="147" y="380" type="curve" smooth="yes"/>
      <point x="122" y="350"/>
      <point x="103" y="323"/>
      <point x="103" y="249" type="curve" smooth="yes"/>
    </contour>
  </outline>
</glyph>
<glyph name="thoPhuthao-thai" format="2">
  <advance width="885"/>
  <unicode hex="0E12"/>
  <anchor x="802" y="0" name="bottom"/>
  <anchor x="822" y="536" name="top"/>
  <outline>
    <contour>
      <point x="265" y="-10" type="curve" smooth="yes"/>
      <point x="287" y="-10"/>
      <point x="306" y="-5"/>
      <point x="316" y="1" type="curve"/>
      <point x="312" y="23" type="line"/>
      <point x="299" y="18"/>
      <point x="284" y="15"/>
      <point x="269" y="15" type="curve" smooth="yes"/>
      <point x="137" y="15"/>
      <point x="100" y="98"/>
      <point x="100" y="283" type="curve" smooth="yes"/>
      <point x="100" y="468"/>
      <point x="137" y="531"/>
      <point x="201" y="531" type="curve" smooth="yes"/>
      <point x="249" y="531"/>
      <point x="272" y="508"/>
      <point x="280" y="460" type="curve"/>
      <point x="302" y="460" type="line"/>
      <point x="314" y="504"/>
      <point x="332" y="531"/>
      <point x="382" y="531" type="curve" smooth="yes"/>
      <point x="444" y="531"/>
      <point x="462" y="502"/>
      <point x="462" y="429" type="curve" smooth="yes"/>
      <point x="462" y="0" type="line"/>
      <point x="486" y="0" type="line"/>
      <point x="489" y="95" type="line"/>
      <point x="493" y="95" type="line"/>
      <point x="521" y="37"/>
      <point x="574" y="-10"/>
      <point x="666" y="-10" type="curve" smooth="yes"/>
      <point x="757" y="-10"/>
      <point x="822" y="43"/>
      <point x="822" y="152" type="curve" smooth="yes"/>
      <point x="822" y="548" type="line"/>
      <point x="796" y="548" type="line"/>
      <point x="796" y="156" type="line" smooth="yes"/>
      <point x="796" y="66"/>
      <point x="749" y="15"/>
      <point x="656" y="15" type="curve" smooth="yes"/>
      <point x="564" y="15"/>
      <point x="488" y="92"/>
      <point x="488" y="196" type="curve" smooth="yes"/>
      <point x="488" y="427" type="line" smooth="yes"/>
      <point x="488" y="513"/>
      <point x="462" y="556"/>
      <point x="387" y="556" type="curve" smooth="yes"/>
      <point x="336" y="556"/>
      <point x="307" y="527"/>
      <point x="294" y="492" type="curve"/>
      <point x="290" y="492" type="line"/>
      <point x="279" y="527"/>
      <point x="257" y="556"/>
      <point x="197" y="556" type="curve" smooth="yes"/>
      <point x="127" y="556"/>
      <point x="74" y="499"/>
      <point x="74" y="281" type="curve" smooth="yes"/>
      <point x="74" y="87"/>
      <point x="118" y="-10"/>
    </contour>
  </outline>
</glyph>
<glyph name="noNen-thai" format="2">
  <advance width="898"/>
  <unicode hex="0E13"/>
  <anchor x="794" y="0" name="bottom"/>
  <anchor x="794" y="536" name="top"/>
  <outline>
    <contour>
      <point x="192" y="-7" type="curve" smooth="yes"/>
      <point x="215" y="-7"/>
      <point x="233" y="-3"/>
      <point x="253" y="5" type="curve"/>
      <point x="247" y="28" type="line"/>
      <point x="232" y="22"/>
      <point x="210" y="17"/>
      <point x="191" y="17" type="curve" smooth="yes"/>
      <point x="146" y="17"/>
      <point x="116" y="40"/>
      <point x="116" y="89" type="curve" smooth="yes"/>
      <point x="116" y="213" type="line" smooth="yes"/>
      <point x="116" y="285"/>
      <point x="159" y="313"/>
      <point x="212" y="319" type="curve"/>
      <point x="218" y="350" type="line"/>
      <point x="104" y="401" type="line"/>
      <point x="104" y="480"/>
      <point x="171" y="531"/>
      <point x="269" y="531" type="curve" smooth="yes"/>
      <point x="366" y="531"/>
      <point x="434" y="485"/>
      <point x="434" y="368" type="curve" smooth="yes"/>
      <point x="434" y="152" type="line" smooth="yes"/>
      <point x="434" y="43"/>
      <point x="497" y="-10"/>
      <point x="595" y="-10" type="curve" smooth="yes"/>
      <point x="674" y="-10"/>
      <point x="733" y="33"/>
      <point x="763" y="95" type="curve"/>
      <point x="767" y="95" type="line"/>
      <point x="770" y="0" type="line"/>
      <point x="794" y="0" type="line"/>
      <point x="794" y="548" type="line"/>
      <point x="768" y="548" type="line"/>
      <point x="768" y="196" type="line" smooth="yes"/>
      <point x="768" y="92"/>
      <point x="691" y="15"/>
      <point x="601" y="15" type="curve" smooth="yes"/>
      <point x="506" y="15"/>
      <point x="460" y="66"/>
      <point x="460" y="156" type="curve" smooth="yes"/>
      <point x="460" y="374" type="line" smooth="yes"/>
      <point x="460" y="499"/>
      <point x="380" y="556"/>
      <point x="270" y="556" type="curve" smooth="yes"/>
      <point x="151" y="556"/>
      <point x="77" y="488"/>
      <point x="77" y="404" type="curve" smooth="yes"/>
      <point x="77" y="385" type="line"/>
      <point x="192" y="340" type="line"/>
      <point x="191" y="337" type="line"/>
      <point x="136" y="324"/>
      <point x="90" y="292"/>
      <point x="90" y="212" type="curve" smooth="yes"/>
      <point x="90" y="88" type="line" smooth="yes"/>
      <point x="90" y="20"/>
      <point x="133" y="-7"/>
    </contour>
  </outline>
</glyph>
<glyph name="doDek-thai" format="2">
  <advance width="606"/>
  <unicode hex="0E14"/>
  <anchor x="514" y="0" name="bottom"/>
  <anchor x="504" y="536" name="top"/>
  <outline>
    <contour>
      <point x="266" y="-10" type="curve" smooth="yes"/>
      <point x="288" y="-10"/>
      <point x="308" y="-7"/>
      <point x="323" y="-1" type="curve"/>
      <point x="317" y="22" type="line"/>
      <point x="307" y="18"/>
      <point x="287" y="15"/>
      <point x="272" y="15" type="curve" smooth="yes"/>
      <point x="133" y="15"/>
      <point x="100" y="121"/>
      <point x="100" y="269" type="curve" smooth="yes"/>
      <point x="100" y="477"/>
      <point x="182" y="531"/>
      <point x="306" y="531" type="curve" smooth="yes"/>
      <point x="431" y="531"/>
      <point x="488" y="472"/>
      <point x="488" y="379" type="curve" smooth="yes"/>
      <point x="488" y="0" type="line"/>
      <point x="514" y="0" type="line"/>
      <point x="514" y="382" type="line" smooth="yes"/>
      <point x="514" y="498"/>
      <point x="434" y="556"/>
      <point x="304" y="556" type="curve" smooth="yes"/>
      <point x="175" y="556"/>
      <point x="72" y="506"/>
      <point x="72" y="270" type="curve" smooth="yes"/>
      <point x="72" y="91"/>
      <point x="123" y="-10"/>
    </contour>
  </outline>
</glyph>
<glyph name="toTao-thai" format="2">
  <advance width="622"/>
  <unicode hex="0E15"/>
  <note>
uni0E15
</note>
  <anchor x="530" y="0" name="bottom"/>
  <anchor x="520" y="536" name="top"/>
  <outline>
    <contour>
      <point x="272" y="-10" type="curve" smooth="yes"/>
      <point x="295" y="-10"/>
      <point x="322" y="-5"/>
      <point x="335" y="1" type="curve"/>
      <point x="331" y="23" type="line"/>
      <point x="316" y="19"/>
      <point x="296" y="15"/>
      <point x="276" y="15" type="curve" smooth="yes"/>
      <point x="139" y="15"/>
      <point x="100" y="103"/>
      <point x="100" y="283" type="curve" smooth="yes"/>
      <point x="100" y="459"/>
      <point x="141" y="531"/>
      <point x="215" y="531" type="curve" smooth="yes"/>
      <point x="263" y="531"/>
      <point x="294" y="508"/>
      <point x="302" y="460" type="curve"/>
      <point x="324" y="460" type="line"/>
      <point x="335" y="504"/>
      <point x="357" y="531"/>
      <point x="411" y="531" type="curve" smooth="yes"/>
      <point x="473" y="531"/>
      <point x="504" y="502"/>
      <point x="504" y="429" type="curve" smooth="yes"/>
      <point x="504" y="0" type="line"/>
      <point x="530" y="0" type="line"/>
      <point x="530" y="427" type="line" smooth="yes"/>
      <point x="530" y="513"/>
      <point x="492" y="556"/>
      <point x="415" y="556" type="curve" smooth="yes"/>
      <point x="360" y="556"/>
      <point x="329" y="527"/>
      <point x="316" y="492" type="curve"/>
      <point x="312" y="492" type="line"/>
      <point x="301" y="527"/>
      <point x="273" y="556"/>
      <point x="213" y="556" type="curve" smooth="yes"/>
      <point x="131" y="556"/>
      <point x="74" y="490"/>
      <point x="74" y="281" type="curve" smooth="yes"/>
      <point x="74" y="92"/>
      <point x="120" y="-10"/>
    </contour>
  </outline>
</glyph>
<glyph name="thoThung-thai" format="2">
  <advance width="576"/>
  <unicode hex="0E16"/>
  <anchor x="484" y="0" name="bottom"/>
  <anchor x="474" y="536" name="top"/>
  <outline>
    <contour>
      <point x="192" y="-7" type="curve" smooth="yes"/>
      <point x="215" y="-7"/>
      <point x="233" y="-3"/>
      <point x="253" y="5" type="curve"/>
      <point x="247" y="28" type="line"/>
      <point x="232" y="22"/>
      <point x="210" y="17"/>
      <point x="191" y="17" type="curve" smooth="yes"/>
      <point x="146" y="17"/>
      <point x="116" y="40"/>
      <point x="116" y="89" type="curve" smooth="yes"/>
      <point x="116" y="213" type="line" smooth="yes"/>
      <point x="116" y="285"/>
      <point x="159" y="313"/>
      <point x="212" y="319" type="curve"/>
      <point x="218" y="350" type="line"/>
      <point x="104" y="401" type="line"/>
      <point x="104" y="473"/>
      <point x="171" y="531"/>
      <point x="282" y="531" type="curve" smooth="yes"/>
      <point x="388" y="531"/>
      <point x="458" y="478"/>
      <point x="458" y="368" type="curve" smooth="yes"/>
      <point x="458" y="0" type="line"/>
      <point x="484" y="0" type="line"/>
      <point x="484" y="374" type="line" smooth="yes"/>
      <point x="484" y="492"/>
      <point x="402" y="556"/>
      <point x="282" y="556" type="curve" smooth="yes"/>
      <point x="151" y="556"/>
      <point x="77" y="481"/>
      <point x="77" y="404" type="curve" smooth="yes"/>
      <point x="77" y="385" type="line"/>
      <point x="192" y="340" type="line"/>
      <point x="191" y="337" type="line"/>
      <point x="136" y="324"/>
      <point x="90" y="292"/>
      <point x="90" y="212" type="curve" smooth="yes"/>
      <point x="90" y="88" type="line" smooth="yes"/>
      <point x="90" y="20"/>
      <point x="133" y="-7"/>
    </contour>
  </outline>
</glyph>
<glyph name="thoThahan-thai" format="2">
  <advance width="606"/>
  <unicode hex="0E17"/>
  <anchor x="514" y="0" name="bottom"/>
  <anchor x="504" y="536" name="top"/>
  <outline>
    <contour>
      <point x="104" y="0" type="line"/>
      <point x="130" y="0" type="line"/>
      <point x="130" y="342" type="line" smooth="yes"/>
      <point x="130" y="453"/>
      <point x="207" y="531"/>
      <point x="323" y="531" type="curve" smooth="yes"/>
      <point x="426" y="531"/>
      <point x="488" y="478"/>
      <point x="488" y="380" type="curve" smooth="yes"/>
      <point x="488" y="0" type="line"/>
      <point x="514" y="0" type="line"/>
      <point x="514" y="383" type="line" smooth="yes"/>
      <point x="514" y="500"/>
      <point x="430" y="556"/>
      <point x="329" y="556" type="curve" smooth="yes"/>
      <point x="238" y="556"/>
      <point x="168" y="520"/>
      <point x="135" y="448" type="curve"/>
      <point x="131" y="448" type="line"/>
      <point x="125" y="548" type="line"/>
      <point x="104" y="548" type="line"/>
    </contour>
  </outline>
</glyph>
<glyph name="thoThong-thai" format="2">
  <advance width="522"/>
  <unicode hex="0E18"/>
  <anchor x="379" y="0" name="bottom"/>
  <anchor x="449" y="536" name="top"/>
  <outline>
    <contour>
      <point x="263" y="-10" type="curve" smooth="yes"/>
      <point x="380" y="-10"/>
      <point x="462" y="31"/>
      <point x="462" y="149" type="curve" smooth="yes"/>
      <point x="462" y="262"/>
      <point x="388" y="288"/>
      <point x="267" y="329" type="curve" smooth="yes"/>
      <point x="162" y="365"/>
      <point x="101" y="386"/>
      <point x="101" y="447" type="curve" smooth="yes"/>
      <point x="101" y="513"/>
      <point x="174" y="532"/>
      <point x="250" y="532" type="curve" smooth="yes"/>
      <point x="327" y="532"/>
      <point x="401" y="512"/>
      <point x="436" y="494" type="curve"/>
      <point x="436" y="522" type="line"/>
      <point x="405" y="536"/>
      <point x="341" y="556"/>
      <point x="254" y="556" type="curve" smooth="yes"/>
      <point x="134" y="556"/>
      <point x="75" y="518"/>
      <point x="75" y="444" type="curve" smooth="yes"/>
      <point x="75" y="379"/>
      <point x="121" y="350"/>
      <point x="239" y="311" type="curve" smooth="yes"/>
      <point x="349" y="274"/>
      <point x="436" y="258"/>
      <point x="436" y="149" type="curve" smooth="yes"/>
      <point x="436" y="47"/>
      <point x="361" y="15"/>
      <point x="267" y="15" type="curve" smooth="yes"/>
      <point x="210" y="15"/>
      <point x="142" y="27"/>
      <point x="113" y="40" type="curve"/>
      <point x="113" y="255" type="line"/>
      <point x="87" y="255" type="line"/>
      <point x="87" y="20" type="line"/>
      <point x="129" y="3"/>
      <point x="197" y="-10"/>
    </contour>
  </outline>
</glyph>
<glyph name="noNu-thai" format="2">
  <advance width="606"/>
  <unicode hex="0E19"/>
  <note>
uni0E19
</note>
  <anchor x="502" y="0" name="bottom"/>
  <anchor x="502" y="536" name="top"/>
  <outline>
    <contour>
      <point x="276" y="-10" type="curve" smooth="yes"/>
      <point x="376" y="-10"/>
      <point x="435" y="29"/>
      <point x="471" y="99" type="curve"/>
      <point x="475" y="99" type="line"/>
      <point x="478" y="0" type="line"/>
      <point x="502" y="0" type="line"/>
      <point x="502" y="548" type="line"/>
      <point x="476" y="548" type="line"/>
      <point x="476" y="206" type="line" smooth="yes"/>
      <point x="476" y="90"/>
      <point x="400" y="15"/>
      <point x="282" y="15" type="curve" smooth="yes"/>
      <point x="179" y="15"/>
      <point x="118" y="68"/>
      <point x="118" y="168" type="curve" smooth="yes"/>
      <point x="118" y="548" type="line"/>
      <point x="92" y="548" type="line"/>
      <point x="92" y="165" type="line" smooth="yes"/>
      <point x="92" y="46"/>
      <point x="175" y="-10"/>
    </contour>
  </outline>
</glyph>
<glyph name="poPla-thai" format="2">
  <advance width="594"/>
  <unicode hex="0E1B"/>
  <note>
uni0E1B
</note>
  <anchor x="480" y="0" name="bottom"/>
  <anchor x="400" y="536" name="top"/>
  <outline>
    <contour>
      <point x="296" y="-10" type="curve" smooth="yes"/>
      <point x="436" y="-10"/>
      <point x="500" y="67"/>
      <point x="500" y="174" type="curve" smooth="yes"/>
      <point x="500" y="745" type="line"/>
      <point x="474" y="745" type="line"/>
      <point x="474" y="177" type="line" smooth="yes"/>
      <point x="474" y="76"/>
      <point x="414" y="15"/>
      <point x="296" y="15" type="curve" smooth="yes"/>
      <point x="178" y="15"/>
      <point x="118" y="76"/>
      <point x="118" y="177" type="curve" smooth="yes"/>
      <point x="118" y="548" type="line"/>
      <point x="92" y="548" type="line"/>
      <point x="92" y="174" type="line" smooth="yes"/>
      <point x="92" y="67"/>
      <point x="156" y="-10"/>
    </contour>
  </outline>
</glyph>
<glyph name="foFa-thai" format="2">
  <advance width="639"/>
  <unicode hex="0E1D"/>
  <anchor x="536" y="0" name="bottom"/>
  <anchor x="437" y="536" name="top"/>
  <outline>
    <contour>
      <point x="97" y="0" type="line"/>
      <point x="118" y="0" type="line"/>
      <point x="315" y="334" type="line"/>
      <point x="319" y="334" type="line"/>
      <point x="516" y="0" type="line"/>
      <point x="537" y="0" type="line"/>
      <point x="537" y="745" type="line"/>
      <point x="511" y="745" type="line"/>
      <point x="511" y="192" type="line" smooth="yes"/>
      <point x="511" y="150"/>
      <point x="512" y="95"/>
      <point x="516" y="43" type="curve"/>
      <point x="512" y="43" type="line"/>
      <point x="493" y="84"/>
      <point x="471" y="123"/>
      <point x="438" y="178" type="curve" smooth="yes"/>
      <point x="326" y="367" type="line"/>
      <point x="308" y="367" type="line"/>
      <point x="196" y="178" type="line" smooth="yes"/>
      <point x="174" y="141"/>
      <point x="145" y="91"/>
      <point x="122" y="43" type="curve"/>
      <point x="118" y="43" type="line"/>
      <point x="122" y="95"/>
      <point x="123" y="150"/>
      <point x="123" y="192" type="curve" smooth="yes"/>
      <point x="123" y="461" type="line" smooth="yes"/>
      <point x="123" y="518"/>
      <point x="153" y="531"/>
      <point x="192" y="531" type="curve" smooth="yes"/>
      <point x="211" y="531"/>
      <point x="231" y="527"/>
      <point x="244" y="523" type="curve"/>
      <point x="247" y="545" type="line"/>
      <point x="236" y="550"/>
      <point x="211" y="556"/>
      <point x="188" y="556" type="curve" smooth="yes"/>
      <point x="146" y="556"/>
      <point x="97" y="535"/>
      <point x="97" y="465" type="curve" smooth="yes"/>
    </contour>
  </outline>
</glyph>
<glyph name="phoPhan-thai" format="2">
  <advance width="682"/>
  <unicode hex="0E1E"/>
  <note>
uni0E1E
</note>
  <anchor x="532" y="0" name="bottom"/>
  <anchor x="581" y="536" name="top"/>
  <outline>
    <contour>
      <point x="150" y="0" type="line"/>
      <point x="182" y="0" type="line"/>
      <point x="305" y="376" type="line" smooth="yes"/>
      <point x="316" y="410"/>
      <point x="329" y="452"/>
      <point x="338" y="485" type="curve"/>
      <point x="343" y="485" type="line"/>
      <point x="352" y="452"/>
      <point x="365" y="410"/>
      <point x="376" y="376" type="curve" smooth="yes"/>
      <point x="500" y="0" type="line"/>
      <point x="532" y="0" type="line"/>
      <point x="629" y="548" type="line"/>
      <point x="602" y="548" type="line"/>
      <point x="539" y="198" type="line" smooth="yes"/>
      <point x="534" y="168"/>
      <point x="523" y="102"/>
      <point x="515" y="41" type="curve"/>
      <point x="511" y="41" type="line"/>
      <point x="492" y="103"/>
      <point x="464" y="185"/>
      <point x="453" y="221" type="curve" smooth="yes"/>
      <point x="348" y="548" type="line"/>
      <point x="333" y="548" type="line"/>
      <point x="228" y="221" type="line" smooth="yes"/>
      <point x="217" y="185"/>
      <point x="190" y="103"/>
      <point x="171" y="41" type="curve"/>
      <point x="167" y="41" type="line"/>
      <point x="158" y="102"/>
      <point x="147" y="168"/>
      <point x="142" y="198" type="curve" smooth="yes"/>
      <point x="80" y="548" type="line"/>
      <point x="53" y="548" type="line"/>
    </contour>
  </outline>
</glyph>
<glyph name="foFan-thai" format="2">
  <advance width="680"/>
  <unicode hex="0E1F"/>
  <anchor x="535" y="0" name="bottom"/>
  <anchor x="520" y="536" name="top"/>
  <outline>
    <contour>
      <point x="154" y="0" type="line"/>
      <point x="186" y="0" type="line"/>
      <point x="309" y="376" type="line" smooth="yes"/>
      <point x="320" y="410"/>
      <point x="333" y="452"/>
      <point x="342" y="485" type="curve"/>
      <point x="347" y="485" type="line"/>
      <point x="356" y="452"/>
      <point x="369" y="410"/>
      <point x="380" y="376" type="curve" smooth="yes"/>
      <point x="503" y="0" type="line"/>
      <point x="535" y="0" type="line"/>
      <point x="647" y="745" type="line"/>
      <point x="621" y="745" type="line"/>
      <point x="541" y="198" type="line" smooth="yes"/>
      <point x="536" y="165"/>
      <point x="525" y="102"/>
      <point x="518" y="41" type="curve"/>
      <point x="514" y="41" type="line"/>
      <point x="495" y="103"/>
      <point x="468" y="185"/>
      <point x="457" y="221" type="curve" smooth="yes"/>
      <point x="352" y="548" type="line"/>
      <point x="337" y="548" type="line"/>
      <point x="232" y="221" type="line" smooth="yes"/>
      <point x="221" y="185"/>
      <point x="194" y="103"/>
      <point x="175" y="41" type="curve"/>
      <point x="171" y="41" type="line"/>
      <point x="162" y="102"/>
      <point x="152" y="167"/>
      <point x="146" y="198" type="curve" smooth="yes"/>
      <point x="80" y="548" type="line"/>
      <point x="53" y="548" type="line"/>
    </contour>
  </outline>
</glyph>
<glyph name="phoSamphao-thai" format="2">
  <advance width="577"/>
  <unicode hex="0E20"/>
  <anchor x="485" y="0" name="bottom"/>
  <anchor x="475" y="536" name="top"/>
  <outline>
    <contour>
      <point x="71" y="-7" type="curve" smooth="yes"/>
      <point x="102" y="-7"/>
      <point x="124" y="10"/>
      <point x="124" y="59" type="curve" smooth="yes"/>
      <point x="124" y="213" type="line" smooth="yes"/>
      <point x="124" y="285"/>
      <point x="160" y="313"/>
      <point x="213" y="319" type="curve"/>
      <point x="219" y="350" type="line"/>
      <point x="105" y="401" type="line"/>
      <point x="105" y="473"/>
      <point x="172" y="531"/>
      <point x="283" y="531" type="curve" smooth="yes"/>
      <point x="389" y="531"/>
      <point x="459" y="478"/>
      <point x="459" y="368" type="curve" smooth="yes"/>
      <point x="459" y="0" type="line"/>
      <point x="485" y="0" type="line"/>
      <point x="485" y="374" type="line" smooth="yes"/>
      <point x="485" y="492"/>
      <point x="403" y="556"/>
      <point x="283" y="556" type="curve" smooth="yes"/>
      <point x="152" y="556"/>
      <point x="78" y="481"/>
      <point x="78" y="404" type="curve" smooth="yes"/>
      <point x="78" y="385" type="line"/>
      <point x="193" y="340" type="line"/>
      <point x="192" y="337" type="line"/>
      <point x="137" y="324"/>
      <point x="98" y="292"/>
      <point x="98" y="212" type="curve" smooth="yes"/>
      <point x="98" y="64" type="line" smooth="yes"/>
      <point x="98" y="32"/>
      <point x="92" y="18"/>
      <point x="67" y="18" type="curve" smooth="yes"/>
      <point x="56" y="18"/>
      <point x="46" y="21"/>
      <point x="37" y="25" type="curve"/>
      <point x="30" y="2" type="line"/>
      <point x="43" y="-4"/>
      <point x="58" y="-7"/>
    </contour>
  </outline>
</glyph>
<glyph name="moMa-thai" format="2">
  <advance width="606"/>
  <unicode hex="0E21"/>
  <note>
uni0E21
</note>
  <anchor x="494" y="0" name="bottom"/>
  <anchor x="514" y="536" name="top"/>
  <outline>
    <contour>
      <point x="332" y="-10" type="curve" smooth="yes"/>
      <point x="433" y="-10"/>
      <point x="514" y="46"/>
      <point x="514" y="165" type="curve" smooth="yes"/>
      <point x="514" y="548" type="line"/>
      <point x="488" y="548" type="line"/>
      <point x="488" y="168" type="line" smooth="yes"/>
      <point x="488" y="68"/>
      <point x="429" y="15"/>
      <point x="326" y="15" type="curve" smooth="yes"/>
      <point x="212" y="15"/>
      <point x="130" y="98"/>
      <point x="130" y="206" type="curve" smooth="yes"/>
      <point x="130" y="548" type="line"/>
      <point x="104" y="548" type="line"/>
      <point x="104" y="0" type="line"/>
      <point x="128" y="0" type="line"/>
      <point x="131" y="105" type="line"/>
      <point x="135" y="105" type="line"/>
      <point x="171" y="35"/>
      <point x="232" y="-10"/>
    </contour>
  </outline>
</glyph>
<glyph name="yoYak-thai" format="2">
  <advance width="583"/>
  <unicode hex="0E22"/>
  <note>
uni0E22
</note>
  <anchor x="471" y="0" name="bottom"/>
  <anchor x="491" y="536" name="top"/>
  <outline>
    <contour>
      <point x="288" y="-9" type="curve" smooth="yes"/>
      <point x="414" y="-9"/>
      <point x="491" y="48"/>
      <point x="491" y="178" type="curve" smooth="yes"/>
      <point x="491" y="548" type="line"/>
      <point x="465" y="548" type="line"/>
      <point x="465" y="172" type="line" smooth="yes"/>
      <point x="465" y="55"/>
      <point x="388" y="16"/>
      <point x="288" y="16" type="curve" smooth="yes"/>
      <point x="184" y="16"/>
      <point x="110" y="60"/>
      <point x="110" y="160" type="curve" smooth="yes"/>
      <point x="110" y="242"/>
      <point x="161" y="288"/>
      <point x="243" y="288" type="curve" smooth="yes"/>
      <point x="282" y="288" type="line"/>
      <point x="282" y="310" type="line"/>
      <point x="243" y="310" type="line" smooth="yes"/>
      <point x="183" y="310"/>
      <point x="107" y="335"/>
      <point x="107" y="425" type="curve" smooth="yes"/>
      <point x="107" y="499"/>
      <point x="159" y="530"/>
      <point x="225" y="530" type="curve" smooth="yes"/>
      <point x="250" y="530"/>
      <point x="280" y="525"/>
      <point x="294" y="520" type="curve"/>
      <point x="299" y="543" type="line"/>
      <point x="279" y="550"/>
      <point x="250" y="555"/>
      <point x="218" y="555" type="curve" smooth="yes"/>
      <point x="138" y="555"/>
      <point x="80" y="507"/>
      <point x="80" y="429" type="curve" smooth="yes"/>
      <point x="80" y="337"/>
      <point x="135" y="315"/>
      <point x="171" y="300" type="curve"/>
      <point x="171" y="296" type="line"/>
      <point x="132" y="279"/>
      <point x="83" y="251"/>
      <point x="83" y="156" type="curve" smooth="yes"/>
      <point x="83" y="59"/>
      <point x="150" y="-9"/>
    </contour>
  </outline>
</glyph>
<glyph name="roRua-thai" format="2">
  <advance width="471"/>
  <unicode hex="0E23"/>
  <note>
uni0E23
</note>
  <anchor x="368" y="0" name="bottom"/>
  <anchor x="419" y="536" name="top"/>
  <outline>
    <contour>
      <point x="234" y="-10" type="curve" smooth="yes"/>
      <point x="357" y="-10"/>
      <point x="421" y="41"/>
      <point x="421" y="132" type="curve" smooth="yes"/>
      <point x="421" y="228"/>
      <point x="351" y="259"/>
      <point x="261" y="293" type="curve" smooth="yes"/>
      <point x="168" y="328"/>
      <point x="81" y="355"/>
      <point x="81" y="433" type="curve" smooth="yes"/>
      <point x="81" y="495"/>
      <point x="136" y="532"/>
      <point x="228" y="532" type="curve" smooth="yes"/>
      <point x="291" y="532"/>
      <point x="359" y="515"/>
      <point x="392" y="498" type="curve"/>
      <point x="392" y="524" type="line"/>
      <point x="362" y="540"/>
      <point x="295" y="556"/>
      <point x="229" y="556" type="curve" smooth="yes"/>
      <point x="116" y="556"/>
      <point x="55" y="508"/>
      <point x="55" y="430" type="curve" smooth="yes"/>
      <point x="55" y="345"/>
      <point x="127" y="314"/>
      <point x="239" y="273" type="curve" smooth="yes"/>
      <point x="320" y="243"/>
      <point x="395" y="216"/>
      <point x="395" y="131" type="curve" smooth="yes"/>
      <point x="395" y="54"/>
      <point x="332" y="14"/>
      <point x="238" y="14" type="curve" smooth="yes"/>
      <point x="172" y="14"/>
      <point x="105" y="33"/>
      <point x="61" y="52" type="curve"/>
      <point x="52" y="27" type="line"/>
      <point x="97" y="8"/>
      <point x="161" y="-10"/>
    </contour>
  </outline>
</glyph>
<glyph name="ru-thai" format="2">
  <advance width="576"/>
  <unicode hex="0E24"/>
  <anchor x="484" y="-174" name="bottom"/>
  <anchor x="474" y="536" name="top"/>
  <outline>
    <contour>
      <point x="458" y="-190" type="line"/>
      <point x="484" y="-190" type="line"/>
      <point x="484" y="100" type="line"/>
      <point x="458" y="100" type="line"/>
    </contour>
    <component base="thoThung-thai"/>
  </outline>
</glyph>
<glyph name="loLing-thai" format="2">
  <advance width="560"/>
  <unicode hex="0E25"/>
  <anchor x="468" y="0" name="bottom"/>
  <anchor x="468" y="536" name="top"/>
  <outline>
    <contour>
      <point x="442" y="0" type="line"/>
      <point x="468" y="0" type="line"/>
      <point x="468" y="392" type="line" smooth="yes"/>
      <point x="468" y="496"/>
      <point x="403" y="556"/>
      <point x="284" y="556" type="curve" smooth="yes"/>
      <point x="200" y="556"/>
      <point x="138" y="534"/>
      <point x="101" y="517" type="curve"/>
      <point x="101" y="487" type="line"/>
      <point x="152" y="514"/>
      <point x="214" y="531"/>
      <point x="279" y="531" type="curve" smooth="yes"/>
      <point x="391" y="531"/>
      <point x="442" y="479"/>
      <point x="442" y="388" type="curve" smooth="yes"/>
    </contour>
    <contour>
      <point x="228" y="-10" type="curve" smooth="yes"/>
      <point x="249" y="-10"/>
      <point x="279" y="-5"/>
      <point x="291" y="0" type="curve"/>
      <point x="286" y="23" type="line"/>
      <point x="269" y="18"/>
      <point x="249" y="15"/>
      <point x="224" y="15" type="curve" smooth="yes"/>
      <point x="141" y="15"/>
      <point x="86" y="57"/>
      <point x="86" y="139" type="curve" smooth="yes"/>
      <point x="86" y="240"/>
      <point x="158" y="282"/>
      <point x="312" y="290" type="curve" smooth="yes"/>
      <point x="448" y="297" type="line"/>
      <point x="448" y="322" type="line"/>
      <point x="303" y="315" type="line" smooth="yes"/>
      <point x="133" y="307"/>
      <point x="58" y="250"/>
      <point x="58" y="138" type="curve" smooth="yes"/>
      <point x="58" y="54"/>
      <point x="106" y="-10"/>
    </contour>
  </outline>
</glyph>
<glyph name="lu-thai" format="2">
  <advance width="577"/>
  <unicode hex="0E26"/>
  <anchor x="485" y="-174" name="bottom"/>
  <anchor x="485" y="536" name="top"/>
  <outline>
    <contour>
      <point x="459" y="-190" type="line"/>
      <point x="485" y="-190" type="line"/>
      <point x="485" y="100" type="line"/>
      <point x="459" y="100" type="line"/>
    </contour>
    <component base="phoSamphao-thai"/>
  </outline>
</glyph>
<glyph name="woWaen-thai" format="2">
  <advance width="484"/>
  <unicode hex="0E27"/>
  <anchor x="316" y="0" name="bottom"/>
  <anchor x="405" y="534" name="top"/>
  <outline>
    <contour>
      <point x="196" y="-10" type="curve" smooth="yes"/>
      <point x="327" y="-10"/>
      <point x="410" y="82"/>
      <point x="410" y="275" type="curve" smooth="yes"/>
      <point x="410" y="463"/>
      <point x="339" y="556"/>
      <point x="172" y="556" type="curve" smooth="yes"/>
      <point x="128" y="556"/>
      <point x="81" y="548"/>
      <point x="43" y="529" type="curve"/>
      <point x="43" y="503" type="line"/>
      <point x="77" y="521"/>
      <point x="124" y="531"/>
      <point x="164" y="531" type="curve" smooth="yes"/>
      <point x="316" y="531"/>
      <point x="382" y="453"/>
      <point x="382" y="275" type="curve" smooth="yes"/>
      <point x="382" y="94"/>
      <point x="304" y="15"/>
      <point x="189" y="15" type="curve" smooth="yes"/>
      <point x="141" y="15"/>
      <point x="97" y="30"/>
      <point x="63" y="51" type="curve"/>
      <point x="50" y="26" type="line"/>
      <point x="96" y="0"/>
      <point x="143" y="-10"/>
    </contour>
  </outline>
</glyph>
<glyph name="soSala-thai" format="2">
  <advance width="617"/>
  <unicode hex="0E28"/>
  <anchor x="510" y="0" name="bottom"/>
  <anchor x="492" y="536" name="top"/>
  <outline>
    <contour>
      <point x="92" y="0" type="line"/>
      <point x="118" y="0" type="line"/>
      <point x="118" y="136" type="line" smooth="yes"/>
      <point x="118" y="222"/>
      <point x="184" y="271"/>
      <point x="280" y="271" type="curve" smooth="yes"/>
      <point x="331" y="271" type="line"/>
      <point x="331" y="296" type="line"/>
      <point x="277" y="296" type="line" smooth="yes"/>
      <point x="195" y="296"/>
      <point x="148" y="264"/>
      <point x="121" y="218" type="curve"/>
      <point x="118" y="219" type="line"/>
      <point x="118" y="367" type="line" smooth="yes"/>
      <point x="118" y="475"/>
      <point x="188" y="531"/>
      <point x="301" y="531" type="curve" smooth="yes"/>
      <point x="414" y="531"/>
      <point x="484" y="475"/>
      <point x="484" y="367" type="curve" smooth="yes"/>
      <point x="484" y="0" type="line"/>
      <point x="510" y="0" type="line"/>
      <point x="510" y="369" type="line" smooth="yes"/>
      <point x="510" y="423"/>
      <point x="494" y="465"/>
      <point x="463" y="495" type="curve"/>
      <point x="429" y="535"/>
      <point x="373" y="556"/>
      <point x="301" y="556" type="curve" smooth="yes"/>
      <point x="172" y="556"/>
      <point x="92" y="491"/>
      <point x="92" y="369" type="curve" smooth="yes"/>
    </contour>
    <contour>
      <point x="448" y="479" type="line"/>
      <point x="507" y="493"/>
      <point x="551" y="528"/>
      <point x="551" y="584" type="curve"/>
      <point x="523" y="584" type="line"/>
      <point x="523" y="533"/>
      <point x="484" y="509"/>
      <point x="434" y="498" type="curve"/>
    </contour>
  </outline>
</glyph>
<glyph name="soRusi-thai" format="2">
  <advance width="628"/>
  <unicode hex="0E29"/>
  <anchor x="494" y="0" name="bottom"/>
  <anchor x="514" y="536" name="top"/>
  <outline>
    <contour>
      <point x="303" y="-10" type="curve" smooth="yes"/>
      <point x="450" y="-10"/>
      <point x="514" y="75"/>
      <point x="514" y="179" type="curve" smooth="yes"/>
      <point x="514" y="548" type="line"/>
      <point x="488" y="548" type="line"/>
      <point x="488" y="182" type="line" smooth="yes"/>
      <point x="488" y="76"/>
      <point x="428" y="15"/>
      <point x="303" y="15" type="curve" smooth="yes"/>
      <point x="178" y="15"/>
      <point x="118" y="76"/>
      <point x="118" y="182" type="curve" smooth="yes"/>
      <point x="118" y="548" type="line"/>
      <point x="92" y="548" type="line"/>
      <point x="92" y="179" type="line" smooth="yes"/>
      <point x="92" y="75"/>
      <point x="156" y="-10"/>
    </contour>
    <contour>
      <point x="354" y="259" type="curve" smooth="yes"/>
      <point x="578" y="259" type="line"/>
      <point x="578" y="282" type="line"/>
      <point x="357" y="282" type="line" smooth="yes"/>
      <point x="322" y="282"/>
      <point x="310" y="292"/>
      <point x="310" y="316" type="curve" smooth="yes"/>
      <point x="310" y="325"/>
      <point x="313" y="336"/>
      <point x="316" y="342" type="curve"/>
      <point x="293" y="349" type="line"/>
      <point x="289" y="341"/>
      <point x="284" y="327"/>
      <point x="284" y="311" type="curve" smooth="yes"/>
      <point x="284" y="276"/>
      <point x="308" y="259"/>
    </contour>
  </outline>
</glyph>
<glyph name="soSua-thai" format="2">
  <advance width="560"/>
  <unicode hex="0E2A"/>
  <note>
uni0E2A
</note>
  <anchor x="468" y="0" name="bottom"/>
  <anchor x="471" y="536" name="top"/>
  <outline>
    <contour>
      <point x="442" y="0" type="line"/>
      <point x="468" y="0" type="line"/>
      <point x="468" y="392" type="line" smooth="yes"/>
      <point x="468" y="436"/>
      <point x="456" y="473"/>
      <point x="431" y="499" type="curve" smooth="yes"/>
      <point x="399" y="533"/>
      <point x="355" y="556"/>
      <point x="279" y="556" type="curve" smooth="yes"/>
      <point x="202" y="556"/>
      <point x="138" y="534"/>
      <point x="101" y="517" type="curve"/>
      <point x="101" y="487" type="line"/>
      <point x="152" y="514"/>
      <point x="214" y="531"/>
      <point x="279" y="531" type="curve" smooth="yes"/>
      <point x="391" y="531"/>
      <point x="442" y="479"/>
      <point x="442" y="388" type="curve" smooth="yes"/>
    </contour>
    <contour>
      <point x="221" y="-10" type="curve" smooth="yes"/>
      <point x="252" y="-10"/>
      <point x="279" y="-5"/>
      <point x="292" y="0" type="curve"/>
      <point x="286" y="23" type="line"/>
      <point x="269" y="18"/>
      <point x="248" y="15"/>
      <point x="225" y="15" type="curve" smooth="yes"/>
      <point x="141" y="15"/>
      <point x="86" y="56"/>
      <point x="86" y="141" type="curve" smooth="yes"/>
      <point x="86" y="241"/>
      <point x="163" y="282"/>
      <point x="312" y="290" type="curve" smooth="yes"/>
      <point x="448" y="297" type="line"/>
      <point x="448" y="322" type="line"/>
      <point x="303" y="315" type="line" smooth="yes"/>
      <point x="141" y="307"/>
      <point x="58" y="253"/>
      <point x="58" y="141" type="curve" smooth="yes"/>
      <point x="58" y="54"/>
      <point x="108" y="-10"/>
    </contour>
    <contour>
      <point x="426" y="484" type="line"/>
      <point x="475" y="501"/>
      <point x="510" y="534"/>
      <point x="510" y="584" type="curve"/>
      <point x="482" y="584" type="line"/>
      <point x="482" y="538"/>
      <point x="451" y="514"/>
      <point x="409" y="502" type="curve"/>
    </contour>
  </outline>
</glyph>
<glyph name="hoHip-thai" format="2">
  <advance width="575"/>
  <unicode hex="0E2B"/>
  <note>
uni0E2B
</note>
  <anchor x="493" y="0" name="bottom"/>
  <anchor x="490" y="536" name="top"/>
  <outline>
    <contour>
      <point x="104" y="0" type="line"/>
      <point x="130" y="0" type="line"/>
      <point x="130" y="203" type="line"/>
      <point x="487" y="545" type="line"/>
      <point x="487" y="548" type="line"/>
      <point x="452" y="548" type="line"/>
      <point x="133" y="239" type="line"/>
      <point x="130" y="239" type="line"/>
      <point x="130" y="548" type="line"/>
      <point x="104" y="548" type="line"/>
    </contour>
    <contour>
      <point x="467" y="0" type="line"/>
      <point x="493" y="0" type="line"/>
      <point x="493" y="184" type="line" smooth="yes"/>
      <point x="493" y="308"/>
      <point x="441" y="373"/>
      <point x="301" y="376" type="curve"/>
      <point x="278" y="354" type="line"/>
      <point x="418" y="358"/>
      <point x="467" y="297"/>
      <point x="467" y="184" type="curve" smooth="yes"/>
    </contour>
  </outline>
</glyph>
<glyph name="loChula-thai" format="2">
  <advance width="644"/>
  <unicode hex="0E2C"/>
  <anchor x="514" y="0" name="bottom"/>
  <outline>
    <contour>
      <point x="136" y="0" type="line"/>
      <point x="166" y="0" type="line"/>
      <point x="292" y="320" type="line" smooth="yes"/>
      <point x="302" y="345"/>
      <point x="314" y="377"/>
      <point x="323" y="406" type="curve"/>
      <point x="327" y="406" type="line"/>
      <point x="336" y="377"/>
      <point x="350" y="345"/>
      <point x="360" y="320" type="curve" smooth="yes"/>
      <point x="484" y="0" type="line"/>
      <point x="514" y="0" type="line"/>
      <point x="576" y="417" type="line" smooth="yes"/>
      <point x="586" y="485"/>
      <point x="571" y="536"/>
      <point x="522" y="561" type="curve"/>
      <point x="522" y="564" type="line"/>
      <point x="592" y="584"/>
      <point x="624" y="621"/>
      <point x="624" y="703" type="curve" smooth="yes"/>
      <point x="624" y="714" type="line"/>
      <point x="597" y="714" type="line"/>
      <point x="597" y="703" type="line" smooth="yes"/>
      <point x="597" y="624"/>
      <point x="558" y="582"/>
      <point x="469" y="582" type="curve" smooth="yes"/>
      <point x="382" y="582" type="line"/>
      <point x="382" y="560" type="line"/>
      <point x="429" y="560" type="line" smooth="yes"/>
      <point x="530" y="560"/>
      <point x="565" y="512"/>
      <point x="550" y="408" type="curve" smooth="yes"/>
      <point x="520" y="198" type="line" smooth="yes"/>
      <point x="514" y="157"/>
      <point x="504" y="101"/>
      <point x="498" y="41" type="curve"/>
      <point x="494" y="41" type="line"/>
      <point x="470" y="106"/>
      <point x="457" y="141"/>
      <point x="425" y="223" type="curve" smooth="yes"/>
      <point x="338" y="447" type="line"/>
      <point x="312" y="447" type="line"/>
      <point x="227" y="223" type="line" smooth="yes"/>
      <point x="196" y="141"/>
      <point x="181" y="106"/>
      <point x="157" y="41" type="curve"/>
      <point x="153" y="41" type="line"/>
      <point x="147" y="101"/>
      <point x="138" y="157"/>
      <point x="132" y="198" type="curve" smooth="yes"/>
      <point x="80" y="548" type="line"/>
      <point x="53" y="548" type="line"/>
    </contour>
  </outline>
</glyph>
<glyph name="oAng-thai" format="2">
  <advance width="564"/>
  <unicode hex="0E2D"/>
  <note>
uni0E2D
</note>
  <anchor x="401" y="0" name="bottom"/>
  <anchor x="467" y="536" name="top"/>
  <outline>
    <contour>
      <point x="270" y="-10" type="curve" smooth="yes"/>
      <point x="427" y="-10"/>
      <point x="490" y="82"/>
      <point x="490" y="271" type="curve" smooth="yes"/>
      <point x="490" y="452"/>
      <point x="428" y="556"/>
      <point x="263" y="556" type="curve" smooth="yes"/>
      <point x="191" y="556"/>
      <point x="124" y="536"/>
      <point x="85" y="518" type="curve"/>
      <point x="85" y="489" type="line"/>
      <point x="135" y="514"/>
      <point x="199" y="531"/>
      <point x="262" y="531" type="curve" smooth="yes"/>
      <point x="413" y="531"/>
      <point x="463" y="431"/>
      <point x="463" y="272" type="curve" smooth="yes"/>
      <point x="463" y="87"/>
      <point x="400" y="14"/>
      <point x="272" y="14" type="curve" smooth="yes"/>
      <point x="145" y="14"/>
      <point x="98" y="85"/>
      <point x="98" y="225" type="curve" smooth="yes"/>
      <point x="98" y="276" type="line"/>
      <point x="254" y="276" type="line"/>
      <point x="254" y="299" type="line"/>
      <point x="75" y="299" type="line"/>
      <point x="73" y="281"/>
      <point x="72" y="246"/>
      <point x="72" y="225" type="curve" smooth="yes"/>
      <point x="72" y="63"/>
      <point x="131" y="-10"/>
    </contour>
  </outline>
</glyph>
<glyph name="hoNokhuk-thai" format="2">
  <advance width="550"/>
  <unicode hex="0E2E"/>
  <anchor x="401" y="0" name="bottom"/>
  <anchor x="458" y="536" name="top"/>
  <outline>
    <contour>
      <point x="270" y="-10" type="curve" smooth="yes"/>
      <point x="427" y="-10"/>
      <point x="490" y="82"/>
      <point x="490" y="270" type="curve" smooth="yes"/>
      <point x="490" y="371"/>
      <point x="472" y="449"/>
      <point x="427" y="496" type="curve"/>
      <point x="394" y="536"/>
      <point x="336" y="556"/>
      <point x="263" y="556" type="curve" smooth="yes"/>
      <point x="190" y="556"/>
      <point x="124" y="536"/>
      <point x="85" y="518" type="curve"/>
      <point x="85" y="489" type="line"/>
      <point x="135" y="514"/>
      <point x="199" y="531"/>
      <point x="262" y="531" type="curve" smooth="yes"/>
      <point x="413" y="531"/>
      <point x="463" y="431"/>
      <point x="463" y="272" type="curve" smooth="yes"/>
      <point x="463" y="87"/>
      <point x="400" y="14"/>
      <point x="272" y="14" type="curve" smooth="yes"/>
      <point x="145" y="14"/>
      <point x="98" y="85"/>
      <point x="98" y="225" type="curve" smooth="yes"/>
      <point x="98" y="276" type="line"/>
      <point x="254" y="276" type="line"/>
      <point x="254" y="299" type="line"/>
      <point x="75" y="299" type="line"/>
      <point x="73" y="281"/>
      <point x="72" y="246"/>
      <point x="72" y="225" type="curve" smooth="yes"/>
      <point x="72" y="63"/>
      <point x="131" y="-10"/>
    </contour>
    <contour>
      <point x="416" y="481" type="line"/>
      <point x="471" y="496"/>
      <point x="512" y="530"/>
      <point x="512" y="584" type="curve"/>
      <point x="484" y="584" type="line"/>
      <point x="484" y="535"/>
      <point x="448" y="511"/>
      <point x="402" y="500" type="curve"/>
    </contour>
  </outline>
</glyph>
<glyph name="paiyannoi-thai" format="2">
  <advance width="512"/>
  <unicode hex="0E2F"/>
  <outline>
    <contour>
      <point x="366" y="-1" type="line"/>
      <point x="392" y="-1" type="line"/>
      <point x="392" y="548" type="line"/>
      <point x="366" y="548" type="line"/>
      <point x="366" y="432" type="line" smooth="yes"/>
      <point x="366" y="335"/>
      <point x="318" y="275"/>
      <point x="208" y="275" type="curve" smooth="yes"/>
      <point x="108" y="275"/>
      <point x="59" y="326"/>
      <point x="59" y="415" type="curve" smooth="yes"/>
      <point x="59" y="498"/>
      <point x="105" y="531"/>
      <point x="167" y="531" type="curve" smooth="yes"/>
      <point x="182" y="531"/>
      <point x="201" y="528"/>
      <point x="214" y="522" type="curve"/>
      <point x="219" y="546" type="line"/>
      <point x="200" y="554"/>
      <point x="181" y="556"/>
      <point x="165" y="556" type="curve" smooth="yes"/>
      <point x="86" y="556"/>
      <point x="32" y="509"/>
      <point x="32" y="420" type="curve" smooth="yes"/>
      <point x="32" y="317"/>
      <point x="87" y="252"/>
      <point x="203" y="252" type="curve" smooth="yes"/>
      <point x="292" y="252"/>
      <point x="335" y="279"/>
      <point x="370" y="340" type="curve"/>
      <point x="366" y="345" type="line"/>
    </contour>
  </outline>
</glyph>
<glyph name="maiHanaKat-thai" format="2">
  <unicode hex="0E31"/>
  <anchor x="-104" y="536" name="_top"/>
  <anchor x="-134" y="714" name="top"/>
  <outline>
    <contour>
      <point x="-247" y="636" type="curve" smooth="yes"/>
      <point x="33" y="636" type="line"/>
      <point x="33" y="660" type="line"/>
      <point x="-244" y="660" type="line" smooth="yes"/>
      <point x="-275" y="660"/>
      <point x="-286" y="672"/>
      <point x="-286" y="693" type="curve" smooth="yes"/>
      <point x="-286" y="704"/>
      <point x="-282" y="718"/>
      <point x="-278" y="726" type="curve"/>
      <point x="-302" y="730" type="line"/>
      <point x="-307" y="720"/>
      <point x="-311" y="702"/>
      <point x="-311" y="689" type="curve" smooth="yes"/>
      <point x="-311" y="659"/>
      <point x="-292" y="636"/>
    </contour>
  </outline>
</glyph>
<glyph name="saraAa-thai" format="2">
  <advance width="408"/>
  <unicode hex="0E32"/>
  <outline>
    <contour>
      <point x="290" y="0" type="line"/>
      <point x="316" y="0" type="line"/>
      <point x="316" y="417" type="line" smooth="yes"/>
      <point x="316" y="505"/>
      <point x="271" y="556"/>
      <point x="172" y="556" type="curve" smooth="yes"/>
      <point x="113" y="556"/>
      <point x="61" y="537"/>
      <point x="30" y="523" type="curve"/>
      <point x="30" y="494" type="line"/>
      <point x="71" y="515"/>
      <point x="127" y="531"/>
      <point x="167" y="531" type="curve" smooth="yes"/>
      <point x="253" y="531"/>
      <point x="290" y="489"/>
      <point x="290" y="408" type="curve" smooth="yes"/>
    </contour>
  </outline>
</glyph>
<glyph name="saraI-thai" format="2">
  <unicode hex="0E34"/>
  <anchor x="-104" y="536" name="_top"/>
  <anchor x="-104" y="713" name="top"/>
  <outline>
    <contour>
      <point x="-498" y="636" type="line"/>
      <point x="-104" y="636" type="line"/>
      <point x="-104" y="660" type="line"/>
      <point x="-470" y="660" type="line"/>
      <point x="-498" y="650" type="line"/>
    </contour>
  </outline>
</glyph>
<glyph name="saraIi-thai" format="2">
  <unicode hex="0E35"/>
  <anchor x="-104" y="536" name="_top"/>
  <anchor x="-104" y="772" name="top"/>
  <outline>
    <contour>
      <point x="-498" y="636" type="line"/>
      <point x="-104" y="636" type="line"/>
      <point x="-104" y="660" type="line"/>
      <point x="-470" y="660" type="line"/>
      <point x="-498" y="650" type="line"/>
    </contour>
    <contour>
      <point x="-129" y="654" type="line"/>
      <point x="-104" y="654" type="line"/>
      <point x="-104" y="756" type="line"/>
      <point x="-129" y="756" type="line"/>
    </contour>
  </outline>
</glyph>
<glyph name="saraUe-thai" format="2">
  <unicode hex="0E36"/>
  <anchor x="-104" y="536" name="_top"/>
  <anchor x="-149" y="772" name="top"/>
  <outline>
    <contour>
      <point x="-498" y="636" type="line"/>
      <point x="-168" y="636" type="line" smooth="yes"/>
      <point x="-128" y="636"/>
      <point x="-95" y="657"/>
      <point x="-95" y="700" type="curve" smooth="yes"/>
      <point x="-95" y="743"/>
      <point x="-126" y="764"/>
      <point x="-164" y="764" type="curve" smooth="yes"/>
      <point x="-201" y="764"/>
      <point x="-232" y="744"/>
      <point x="-232" y="701" type="curve" smooth="yes"/>
      <point x="-232" y="679"/>
      <point x="-220" y="657"/>
      <point x="-201" y="647" type="curve"/>
      <point x="-197" y="660" type="line"/>
      <point x="-470" y="660" type="line"/>
      <point x="-498" y="650" type="line"/>
    </contour>
    <contour>
      <point x="-164" y="660" type="curve" smooth="yes"/>
      <point x="-188" y="660"/>
      <point x="-206" y="675"/>
      <point x="-206" y="700" type="curve" smooth="yes"/>
      <point x="-206" y="725"/>
      <point x="-188" y="740"/>
      <point x="-164" y="740" type="curve" smooth="yes"/>
      <point x="-140" y="740"/>
      <point x="-122" y="725"/>
      <point x="-122" y="700" type="curve" smooth="yes"/>
      <point x="-122" y="675"/>
      <point x="-140" y="660"/>
    </contour>
  </outline>
</glyph>
<glyph name="saraUee-thai" format="2">
  <unicode hex="0E37"/>
  <anchor x="-104" y="536" name="_top"/>
  <anchor x="-140" y="772" name="top"/>
  <outline>
    <contour>
      <point x="-498" y="636" type="line"/>
      <point x="-104" y="636" type="line"/>
      <point x="-104" y="660" type="line"/>
      <point x="-470" y="660" type="line"/>
      <point x="-498" y="650" type="line"/>
    </contour>
    <contour>
      <point x="-210" y="654" type="line"/>
      <point x="-187" y="654" type="line"/>
      <point x="-187" y="743" type="line"/>
      <point x="-210" y="743" type="line"/>
    </contour>
    <contour>
      <point x="-127" y="654" type="line"/>
      <point x="-104" y="654" type="line"/>
      <point x="-104" y="743" type="line"/>
      <point x="-127" y="743" type="line"/>
    </contour>
  </outline>
</glyph>
<glyph name="baht" format="2">
  <advance width="570"/>
  <unicode hex="0E3F"/>
  <outline>
    <contour>
      <point x="102" y="40" type="line"/>
      <point x="287" y="40" type="line" smooth="yes"/>
      <point x="417" y="40"/>
      <point x="509" y="87"/>
      <point x="509" y="217" type="curve" smooth="yes"/>
      <point x="509" y="297"/>
      <point x="468" y="356"/>
      <point x="363" y="372" type="curve"/>
      <point x="363" y="374" type="line"/>
      <point x="446" y="389"/>
      <point x="489" y="447"/>
      <point x="489" y="526" type="curve" smooth="yes"/>
      <point x="489" y="623"/>
      <point x="423" y="673"/>
      <point x="271" y="673" type="curve" smooth="yes"/>
      <point x="102" y="673" type="line"/>
    </contour>
    <contour>
      <point x="128" y="63" type="line"/>
      <point x="128" y="362" type="line"/>
      <point x="276" y="362" type="line" smooth="yes"/>
      <point x="403" y="362"/>
      <point x="483" y="324"/>
      <point x="483" y="215" type="curve" smooth="yes"/>
      <point x="483" y="107"/>
      <point x="409" y="63"/>
      <point x="289" y="63" type="curve" smooth="yes"/>
    </contour>
    <contour>
      <point x="128" y="384" type="line"/>
      <point x="128" y="650" type="line"/>
      <point x="267" y="650" type="line" smooth="yes"/>
      <point x="404" y="650"/>
      <point x="463" y="614"/>
      <point x="463" y="523" type="curve" smooth="yes"/>
      <point x="463" y="432"/>
      <point x="404" y="384"/>
      <point x="278" y="384" type="curve" smooth="yes"/>
    </contour>
    <contour>
      <point x="260" y="-58" type="line"/>
      <point x="286" y="-58" type="line"/>
      <point x="286" y="760" type="line"/>
      <point x="260" y="760" type="line"/>
    </contour>
  </outline>
</glyph>
<glyph name="saraE-thai" format="2">
  <advance width="261"/>
  <unicode hex="0E40"/>
  <outline>
    <contour>
      <point x="179" y="-10" type="curve" smooth="yes"/>
      <point x="195" y="-10"/>
      <point x="216" y="-6"/>
      <point x="231" y="1" type="curve"/>
      <point x="225" y="24" type="line"/>
      <point x="214" y="19"/>
      <point x="195" y="14"/>
      <point x="180" y="14" type="curve" smooth="yes"/>
      <point x="152" y="14"/>
      <point x="133" y="29"/>
      <point x="133" y="65" type="curve" smooth="yes"/>
      <point x="133" y="548" type="line"/>
      <point x="107" y="548" type="line"/>
      <point x="107" y="60" type="line" smooth="yes"/>
      <point x="107" y="11"/>
      <point x="141" y="-10"/>
    </contour>
  </outline>
</glyph>
<glyph name="saraO-thai" format="2">
  <advance width="263"/>
  <unicode hex="0E42"/>
  <outline>
    <contour>
      <point x="116" y="448" type="line"/>
      <point x="142" y="448" type="line"/>
      <point x="142" y="661" type="line" smooth="yes"/>
      <point x="142" y="724"/>
      <point x="127" y="753"/>
      <point x="92" y="776" type="curve"/>
      <point x="93" y="780" type="line"/>
      <point x="294" y="780" type="line"/>
      <point x="294" y="805" type="line"/>
      <point x="53" y="805" type="line"/>
      <point x="20" y="791" type="line"/>
      <point x="20" y="780" type="line"/>
      <point x="83" y="780"/>
      <point x="116" y="739"/>
      <point x="116" y="674" type="curve" smooth="yes"/>
    </contour>
    <component base="saraE-thai" xOffset="9"/>
  </outline>
</glyph>
<glyph name="saraAiMaimuan-thai" format="2">
  <advance width="260"/>
  <unicode hex="0E43"/>
  <outline>
    <contour>
      <point x="168" y="-10" type="curve" smooth="yes"/>
      <point x="184" y="-10"/>
      <point x="205" y="-6"/>
      <point x="220" y="1" type="curve"/>
      <point x="214" y="24" type="line"/>
      <point x="203" y="19"/>
      <point x="184" y="14"/>
      <point x="169" y="14" type="curve" smooth="yes"/>
      <point x="141" y="14"/>
      <point x="122" y="29"/>
      <point x="122" y="65" type="curve" smooth="yes"/>
      <point x="122" y="473" type="line" smooth="yes"/>
      <point x="122" y="518"/>
      <point x="139" y="537"/>
      <point x="180" y="591" type="curve" smooth="yes"/>
      <point x="212" y="632"/>
      <point x="235" y="665"/>
      <point x="235" y="713" type="curve" smooth="yes"/>
      <point x="235" y="777"/>
      <point x="194" y="811"/>
      <point x="131" y="811" type="curve" smooth="yes"/>
      <point x="91" y="811"/>
      <point x="47" y="797"/>
      <point x="30" y="789" type="curve"/>
      <point x="30" y="762" type="line"/>
      <point x="51" y="772"/>
      <point x="92" y="786"/>
      <point x="129" y="786" type="curve" smooth="yes"/>
      <point x="175" y="786"/>
      <point x="209" y="764"/>
      <point x="209" y="711" type="curve" smooth="yes"/>
      <point x="209" y="672"/>
      <point x="191" y="648"/>
      <point x="160" y="606" type="curve" smooth="yes"/>
      <point x="120" y="552"/>
      <point x="96" y="530"/>
      <point x="96" y="477" type="curve" smooth="yes"/>
      <point x="96" y="60" type="line" smooth="yes"/>
      <point x="96" y="11"/>
      <point x="130" y="-10"/>
    </contour>
  </outline>
</glyph>
<glyph name="saraAiMaimalai-thai" format="2">
  <advance width="247"/>
  <unicode hex="0E44"/>
  <outline>
    <contour>
      <point x="93" y="448" type="line"/>
      <point x="119" y="448" type="line"/>
      <point x="119" y="674" type="line" smooth="yes"/>
      <point x="119" y="744"/>
      <point x="145" y="780"/>
      <point x="206" y="783" type="curve"/>
      <point x="206" y="805" type="line"/>
      <point x="6" y="805" type="line"/>
      <point x="-2" y="780" type="line"/>
      <point x="137" y="780" type="line"/>
      <point x="138" y="777" type="line"/>
      <point x="108" y="754"/>
      <point x="93" y="734"/>
      <point x="93" y="661" type="curve" smooth="yes"/>
    </contour>
    <component base="saraE-thai" xOffset="-14"/>
  </outline>
</glyph>
<glyph name="maiyamok-thai" format="2">
  <advance width="583"/>
  <unicode hex="0E46"/>
  <outline>
    <contour>
      <point x="465" y="-190" type="line"/>
      <point x="491" y="-190" type="line"/>
      <point x="491" y="451" type="line" smooth="yes"/>
      <point x="491" y="522"/>
      <point x="446" y="556"/>
      <point x="393" y="556" type="curve" smooth="yes"/>
      <point x="335" y="556"/>
      <point x="307" y="529"/>
      <point x="294" y="489" type="curve"/>
      <point x="292" y="489" type="line"/>
      <point x="279" y="529"/>
      <point x="241" y="556"/>
      <point x="198" y="556" type="curve" smooth="yes"/>
      <point x="134" y="556"/>
      <point x="90" y="511"/>
      <point x="90" y="400" type="curve" smooth="yes"/>
      <point x="90" y="293"/>
      <point x="120" y="237"/>
      <point x="197" y="237" type="curve" smooth="yes"/>
      <point x="214" y="237"/>
      <point x="230" y="238"/>
      <point x="250" y="247" type="curve"/>
      <point x="243" y="270" type="line"/>
      <point x="230" y="264"/>
      <point x="216" y="262"/>
      <point x="202" y="262" type="curve" smooth="yes"/>
      <point x="143" y="262"/>
      <point x="116" y="297"/>
      <point x="116" y="402" type="curve" smooth="yes"/>
      <point x="116" y="492"/>
      <point x="149" y="531"/>
      <point x="203" y="531" type="curve" smooth="yes"/>
      <point x="251" y="531"/>
      <point x="281" y="495"/>
      <point x="281" y="440" type="curve" smooth="yes"/>
      <point x="281" y="399" type="line"/>
      <point x="305" y="399" type="line"/>
      <point x="305" y="440" type="line" smooth="yes"/>
      <point x="305" y="495"/>
      <point x="336" y="531"/>
      <point x="385" y="531" type="curve" smooth="yes"/>
      <point x="434" y="531"/>
      <point x="465" y="504"/>
      <point x="465" y="440" type="curve" smooth="yes"/>
    </contour>
  </outline>
</glyph>
<glyph name="maitaikhu-thai" format="2">
  <unicode hex="0E47"/>
  <anchor x="-104" y="536" name="_top"/>
  <anchor x="-237" y="845" name="top"/>
  <outline>
    <contour>
      <point x="-180" y="626" type="curve" smooth="yes"/>
      <point x="-140" y="626"/>
      <point x="-104" y="650"/>
      <point x="-104" y="699" type="curve" smooth="yes"/>
      <point x="-104" y="713" type="line"/>
      <point x="-130" y="713" type="line"/>
      <point x="-130" y="699" type="line" smooth="yes"/>
      <point x="-130" y="669"/>
      <point x="-150" y="651"/>
      <point x="-183" y="651" type="curve" smooth="yes"/>
      <point x="-219" y="651"/>
      <point x="-244" y="674"/>
      <point x="-256" y="713" type="curve"/>
      <point x="-272" y="713" type="line"/>
      <point x="-338" y="654" type="line"/>
      <point x="-380" y="654"/>
      <point x="-408" y="681"/>
      <point x="-408" y="726" type="curve" smooth="yes"/>
      <point x="-408" y="782"/>
      <point x="-374" y="807"/>
      <point x="-326" y="807" type="curve" smooth="yes"/>
      <point x="-105" y="807" type="line"/>
      <point x="-105" y="832" type="line"/>
      <point x="-334" y="832" type="line" smooth="yes"/>
      <point x="-390" y="832"/>
      <point x="-435" y="795"/>
      <point x="-435" y="730" type="curve" smooth="yes"/>
      <point x="-435" y="665"/>
      <point x="-396" y="629"/>
      <point x="-330" y="629" type="curve"/>
      <point x="-271" y="684" type="line"/>
      <point x="-253" y="648"/>
      <point x="-224" y="626"/>
    </contour>
  </outline>
</glyph>
<glyph name="maiEk-thai" format="2">
  <unicode hex="0E48"/>
  <anchor x="-104" y="536" name="_top"/>
  <anchor x="-104" y="845" name="top"/>
  <outline>
    <contour>
      <point x="-130" y="636" type="line"/>
      <point x="-104" y="636" type="line"/>
      <point x="-104" y="827" type="line"/>
      <point x="-130" y="827" type="line"/>
    </contour>
  </outline>
</glyph>
<glyph name="maiTho-thai" format="2">
  <unicode hex="0E49"/>
  <anchor x="-104" y="536" name="_top"/>
  <anchor x="-190" y="845" name="top"/>
  <outline>
    <contour>
      <point x="-339" y="636" type="line"/>
      <point x="-70" y="636" type="line"/>
      <point x="-70" y="660" type="line"/>
      <point x="-252" y="660" type="line"/>
      <point x="-253" y="663" type="line"/>
      <point x="-225" y="681"/>
      <point x="-200" y="714"/>
      <point x="-200" y="748" type="curve" smooth="yes"/>
      <point x="-200" y="793"/>
      <point x="-229" y="821"/>
      <point x="-277" y="821" type="curve" smooth="yes"/>
      <point x="-294" y="821"/>
      <point x="-316" y="816"/>
      <point x="-340" y="803" type="curve"/>
      <point x="-332" y="782" type="line"/>
      <point x="-316" y="790"/>
      <point x="-296" y="798"/>
      <point x="-280" y="798" type="curve" smooth="yes"/>
      <point x="-243" y="798"/>
      <point x="-226" y="778"/>
      <point x="-226" y="748" type="curve" smooth="yes"/>
      <point x="-226" y="700"/>
      <point x="-277" y="664"/>
      <point x="-339" y="653" type="curve"/>
    </contour>
  </outline>
</glyph>
<glyph name="maiTri-thai" format="2">
  <unicode hex="0E4A"/>
  <anchor x="-104" y="536" name="_top"/>
  <anchor x="-240" y="845" name="top"/>
  <outline>
    <contour>
      <point x="-324" y="631" type="curve" smooth="yes"/>
      <point x="-307" y="631"/>
      <point x="-294" y="634"/>
      <point x="-286" y="638" type="curve"/>
      <point x="-292" y="659" type="line"/>
      <point x="-299" y="656"/>
      <point x="-310" y="654"/>
      <point x="-317" y="654" type="curve" smooth="yes"/>
      <point x="-356" y="654"/>
      <point x="-383" y="677"/>
      <point x="-383" y="721" type="curve" smooth="yes"/>
      <point x="-383" y="771"/>
      <point x="-354" y="789"/>
      <point x="-324" y="792" type="curve"/>
      <point x="-276" y="761" type="line"/>
      <point x="-266" y="761" type="line"/>
      <point x="-218" y="792" type="line"/>
      <point x="-188" y="784"/>
      <point x="-159" y="767"/>
      <point x="-159" y="720" type="curve" smooth="yes"/>
      <point x="-159" y="689"/>
      <point x="-180" y="661"/>
      <point x="-214" y="651" type="curve"/>
      <point x="-214" y="636" type="line"/>
      <point x="-70" y="636" type="line"/>
      <point x="-70" y="657" type="line"/>
      <point x="-158" y="657" type="line"/>
      <point x="-160" y="661" type="line"/>
      <point x="-141" y="677"/>
      <point x="-133" y="700"/>
      <point x="-133" y="726" type="curve" smooth="yes"/>
      <point x="-133" y="774"/>
      <point x="-168" y="806"/>
      <point x="-217" y="819" type="curve"/>
      <point x="-271" y="782" type="line"/>
      <point x="-325" y="819" type="line"/>
      <point x="-374" y="813"/>
      <point x="-409" y="779"/>
      <point x="-409" y="722" type="curve" smooth="yes"/>
      <point x="-409" y="664"/>
      <point x="-372" y="631"/>
    </contour>
  </outline>
</glyph>
<glyph name="maiChattawa-thai" format="2">
  <unicode hex="0E4B"/>
  <anchor x="-102" y="536" name="_top"/>
  <anchor x="-187" y="845" name="top"/>
  <outline>
    <contour>
      <point x="-213" y="636" type="line"/>
      <point x="-187" y="636" type="line"/>
      <point x="-187" y="827" type="line"/>
      <point x="-213" y="827" type="line"/>
    </contour>
    <contour>
      <point x="-299" y="718" type="line"/>
      <point x="-101" y="718" type="line"/>
      <point x="-101" y="741" type="line"/>
      <point x="-299" y="741" type="line"/>
    </contour>
  </outline>
</glyph>
<glyph name="thanthakhat-thai" format="2">
  <unicode hex="0E4C"/>
  <anchor x="-104" y="536" name="_top"/>
  <anchor x="-144" y="771" name="top"/>
  <outline>
    <contour>
      <point x="-241" y="635" type="curve"/>
      <point x="-217" y="640" type="line"/>
      <point x="-223" y="649"/>
      <point x="-226" y="660"/>
      <point x="-226" y="670" type="curve" smooth="yes"/>
      <point x="-226" y="691"/>
      <point x="-216" y="703"/>
      <point x="-183" y="703" type="curve" smooth="yes"/>
      <point x="-67" y="703" type="line"/>
      <point x="-67" y="727" type="line"/>
      <point x="-189" y="727" type="line" smooth="yes"/>
      <point x="-228" y="727"/>
      <point x="-251" y="707"/>
      <point x="-251" y="675" type="curve" smooth="yes"/>
      <point x="-251" y="660"/>
      <point x="-248" y="646"/>
    </contour>
  </outline>
</glyph>
<glyph name="nikhahit-thai" format="2">
  <unicode hex="0E4D"/>
  <anchor x="-104" y="536" name="_top"/>
  <anchor x="-138" y="782" name="top"/>
  <outline>
    <contour>
      <point x="-154" y="620" type="curve" smooth="yes"/>
      <point x="-106" y="620"/>
      <point x="-67" y="647"/>
      <point x="-67" y="701" type="curve" smooth="yes"/>
      <point x="-67" y="755"/>
      <point x="-106" y="782"/>
      <point x="-154" y="782" type="curve" smooth="yes"/>
      <point x="-201" y="782"/>
      <point x="-240" y="755"/>
      <point x="-240" y="701" type="curve" smooth="yes"/>
      <point x="-240" y="647"/>
      <point x="-201" y="620"/>
    </contour>
    <contour>
      <point x="-154" y="642" type="curve" smooth="yes"/>
      <point x="-192" y="642"/>
      <point x="-216" y="665"/>
      <point x="-216" y="701" type="curve" smooth="yes"/>
      <point x="-216" y="737"/>
      <point x="-192" y="760"/>
      <point x="-154" y="760" type="curve" smooth="yes"/>
      <point x="-115" y="760"/>
      <point x="-91" y="737"/>
      <point x="-91" y="701" type="curve" smooth="yes"/>
      <point x="-91" y="665"/>
      <point x="-115" y="642"/>
    </contour>
  </outline>
</glyph>
<glyph name="yamakkan-thai" format="2">
  <unicode hex="0E4E"/>
  <anchor x="-104" y="536" name="_top"/>
  <anchor x="-107" y="771" name="top"/>
  <outline>
    <contour>
      <point x="-241" y="614" type="curve"/>
      <point x="-217" y="618" type="line"/>
      <point x="-222" y="626"/>
      <point x="-226" y="637"/>
      <point x="-226" y="646" type="curve" smooth="yes"/>
      <point x="-226" y="669"/>
      <point x="-212" y="684"/>
      <point x="-184" y="684" type="curve" smooth="yes"/>
      <point x="-169" y="684"/>
      <point x="-154" y="676"/>
      <point x="-144" y="668" type="curve"/>
      <point x="-120" y="685" type="line"/>
      <point x="-126" y="694"/>
      <point x="-129" y="703"/>
      <point x="-129" y="711" type="curve" smooth="yes"/>
      <point x="-129" y="736"/>
      <point x="-113" y="744"/>
      <point x="-92" y="744" type="curve" smooth="yes"/>
      <point x="-85" y="744"/>
      <point x="-73" y="743"/>
      <point x="-61" y="740" type="curve"/>
      <point x="-61" y="760" type="line"/>
      <point x="-70" y="765"/>
      <point x="-84" y="768"/>
      <point x="-99" y="768" type="curve" smooth="yes"/>
      <point x="-129" y="768"/>
      <point x="-154" y="750"/>
      <point x="-154" y="719" type="curve" smooth="yes"/>
      <point x="-154" y="712"/>
      <point x="-153" y="704"/>
      <point x="-150" y="698" type="curve"/>
      <point x="-152" y="696" type="line"/>
      <point x="-161" y="702"/>
      <point x="-175" y="706"/>
      <point x="-190" y="706" type="curve" smooth="yes"/>
      <point x="-218" y="706"/>
      <point x="-251" y="690"/>
      <point x="-251" y="649" type="curve" smooth="yes"/>
      <point x="-251" y="638"/>
      <point x="-247" y="623"/>
    </contour>
  </outline>
</glyph>
<glyph name="four-thai" format="2">
  <advance width="552"/>
  <unicode hex="0E54"/>
  <outline>
    <contour>
      <point x="261" y="0" type="curve" smooth="yes"/>
      <point x="482" y="0" type="line"/>
      <point x="482" y="24" type="line"/>
      <point x="432" y="24" type="line" smooth="yes"/>
      <point x="385" y="24"/>
      <point x="342" y="74"/>
      <point x="342" y="150" type="curve" smooth="yes"/>
      <point x="342" y="210"/>
      <point x="369" y="236"/>
      <point x="405" y="236" type="curve" smooth="yes"/>
      <point x="412" y="236"/>
      <point x="421" y="235"/>
      <point x="429" y="232" type="curve"/>
      <point x="437" y="254" type="line"/>
      <point x="427" y="258"/>
      <point x="415" y="260"/>
      <point x="403" y="260" type="curve" smooth="yes"/>
      <point x="358" y="260"/>
      <point x="317" y="231"/>
      <point x="317" y="152" type="curve" smooth="yes"/>
      <point x="317" y="95"/>
      <point x="338" y="47"/>
      <point x="386" y="17" type="curve"/>
      <point x="386" y="25" type="line"/>
      <point x="266" y="25" type="line" smooth="yes"/>
      <point x="151" y="25"/>
      <point x="96" y="79"/>
      <point x="96" y="228" type="curve" smooth="yes"/>
      <point x="96" y="383"/>
      <point x="156" y="435"/>
      <point x="255" y="435" type="curve" smooth="yes"/>
      <point x="340" y="435" type="line" smooth="yes"/>
      <point x="416" y="435"/>
      <point x="448" y="474"/>
      <point x="448" y="539" type="curve" smooth="yes"/>
      <point x="448" y="584" type="line"/>
      <point x="422" y="584" type="line"/>
      <point x="422" y="543" type="line" smooth="yes"/>
      <point x="422" y="486"/>
      <point x="402" y="459"/>
      <point x="328" y="459" type="curve" smooth="yes"/>
      <point x="246" y="459" type="line" smooth="yes"/>
      <point x="137" y="459"/>
      <point x="70" y="400"/>
      <point x="70" y="229" type="curve" smooth="yes"/>
      <point x="70" y="64"/>
      <point x="133" y="0"/>
    </contour>
  </outline>
</glyph>
<glyph name="five-thai" format="2">
  <advance width="552"/>
  <unicode hex="0E55"/>
  <outline>
    <contour>
      <point x="261" y="0" type="curve" smooth="yes"/>
      <point x="482" y="0" type="line"/>
      <point x="482" y="24" type="line"/>
      <point x="432" y="24" type="line" smooth="yes"/>
      <point x="385" y="24"/>
      <point x="342" y="76"/>
      <point x="342" y="145" type="curve" smooth="yes"/>
      <point x="342" y="212"/>
      <point x="369" y="236"/>
      <point x="405" y="236" type="curve" smooth="yes"/>
      <point x="412" y="236"/>
      <point x="421" y="235"/>
      <point x="429" y="232" type="curve"/>
      <point x="437" y="254" type="line"/>
      <point x="427" y="258"/>
      <point x="415" y="260"/>
      <point x="403" y="260" type="curve" smooth="yes"/>
      <point x="358" y="260"/>
      <point x="317" y="231"/>
      <point x="317" y="153" type="curve" smooth="yes"/>
      <point x="317" y="95"/>
      <point x="338" y="47"/>
      <point x="386" y="15" type="curve"/>
      <point x="386" y="25" type="line"/>
      <point x="268" y="25" type="line" smooth="yes"/>
      <point x="147" y="25"/>
      <point x="96" y="82"/>
      <point x="96" y="233" type="curve" smooth="yes"/>
      <point x="96" y="371"/>
      <point x="158" y="433"/>
      <point x="243" y="433" type="curve" smooth="yes"/>
      <point x="312" y="433" type="line" smooth="yes"/>
      <point x="407" y="433"/>
      <point x="447" y="463"/>
      <point x="447" y="542" type="curve" smooth="yes"/>
      <point x="447" y="584" type="line"/>
      <point x="423" y="584" type="line"/>
      <point x="423" y="546" type="line" smooth="yes"/>
      <point x="423" y="474"/>
      <point x="389" y="457"/>
      <point x="298" y="456" type="curve"/>
      <point x="299" y="449" type="line"/>
      <point x="326" y="462"/>
      <point x="336" y="484"/>
      <point x="336" y="511" type="curve" smooth="yes"/>
      <point x="336" y="556"/>
      <point x="305" y="584"/>
      <point x="257" y="584" type="curve" smooth="yes"/>
      <point x="212" y="584"/>
      <point x="178" y="559"/>
      <point x="178" y="511" type="curve" smooth="yes"/>
      <point x="178" y="485"/>
      <point x="189" y="461"/>
      <point x="212" y="450" type="curve"/>
      <point x="211" y="455" type="line"/>
      <point x="141" y="443"/>
      <point x="70" y="390"/>
      <point x="70" y="236" type="curve" smooth="yes"/>
      <point x="70" y="65"/>
      <point x="132" y="0"/>
    </contour>
    <contour>
      <point x="257" y="457" type="curve" smooth="yes"/>
      <point x="220" y="457"/>
      <point x="204" y="480"/>
      <point x="204" y="509" type="curve" smooth="yes"/>
      <point x="204" y="538"/>
      <point x="220" y="561"/>
      <point x="257" y="561" type="curve" smooth="yes"/>
      <point x="294" y="561"/>
      <point x="310" y="538"/>
      <point x="310" y="509" type="curve" smooth="yes"/>
      <point x="310" y="480"/>
      <point x="294" y="457"/>
    </contour>
  </outline>
</glyph>
<glyph name="angkhankhu-thai" format="2">
  <advance width="742"/>
  <unicode hex="0E5A"/>
  <outline>
    <contour>
      <point x="366" y="-1" type="line"/>
      <point x="392" y="-1" type="line"/>
      <point x="392" y="548" type="line"/>
      <point x="366" y="548" type="line"/>
      <point x="366" y="432" type="line" smooth="yes"/>
      <point x="366" y="335"/>
      <point x="318" y="275"/>
      <point x="208" y="275" type="curve" smooth="yes"/>
      <point x="108" y="275"/>
      <point x="59" y="326"/>
      <point x="59" y="415" type="curve" smooth="yes"/>
      <point x="59" y="498"/>
      <point x="105" y="531"/>
      <point x="167" y="531" type="curve" smooth="yes"/>
      <point x="182" y="531"/>
      <point x="201" y="528"/>
      <point x="214" y="522" type="curve"/>
      <point x="219" y="546" type="line"/>
      <point x="200" y="554"/>
      <point x="181" y="556"/>
      <point x="165" y="556" type="curve" smooth="yes"/>
      <point x="86" y="556"/>
      <point x="32" y="509"/>
      <point x="32" y="420" type="curve" smooth="yes"/>
      <point x="32" y="317"/>
      <point x="87" y="252"/>
      <point x="203" y="252" type="curve" smooth="yes"/>
      <point x="292" y="252"/>
      <point x="338" y="280"/>
      <point x="370" y="340" type="curve"/>
      <point x="366" y="345" type="line"/>
    </contour>
    <contour>
      <point x="596" y="-1" type="line"/>
      <point x="622" y="-1" type="line"/>
      <point x="622" y="548" type="line"/>
      <point x="596" y="548" type="line"/>
      <point x="596" y="437" type="line" smooth="yes"/>
      <point x="596" y="323"/>
      <point x="534" y="285"/>
      <point x="448" y="285" type="curve" smooth="yes"/>
      <point x="426" y="285"/>
      <point x="400" y="291"/>
      <point x="388" y="296" type="curve"/>
      <point x="382" y="275" type="line"/>
      <point x="401" y="267"/>
      <point x="429" y="262"/>
      <point x="452" y="262" type="curve" smooth="yes"/>
      <point x="523" y="262"/>
      <point x="577" y="287"/>
      <point x="599" y="350" type="curve"/>
      <point x="596" y="354" type="line"/>
    </contour>
  </outline>
</glyph>
<glyph name="doChada-thai.short" format="2">
  <advance width="577"/>
  <anchor x="485" y="-163" name="bottom"/>
  <anchor x="475" y="536" name="top"/>
  <outline>
    <contour>
      <point x="105" y="-163" type="line"/>
      <point x="131" y="-163" type="line"/>
      <point x="131" y="-156" type="line" smooth="yes"/>
      <point x="131" y="-104"/>
      <point x="168" y="-68"/>
      <point x="248" y="-68" type="curve" smooth="yes"/>
      <point x="334" y="-68"/>
      <point x="417" y="-122"/>
      <point x="464" y="-163" type="curve"/>
      <point x="485" y="-163" type="line"/>
      <point x="485" y="374" type="line" smooth="yes"/>
      <point x="485" y="492"/>
      <point x="403" y="556"/>
      <point x="283" y="556" type="curve" smooth="yes"/>
      <point x="152" y="556"/>
      <point x="78" y="481"/>
      <point x="78" y="404" type="curve" smooth="yes"/>
      <point x="78" y="385" type="line"/>
      <point x="193" y="340" type="line"/>
      <point x="192" y="337" type="line"/>
      <point x="137" y="324"/>
      <point x="98" y="292"/>
      <point x="98" y="212" type="curve" smooth="yes"/>
      <point x="98" y="64" type="line" smooth="yes"/>
      <point x="98" y="32"/>
      <point x="92" y="18"/>
      <point x="67" y="18" type="curve" smooth="yes"/>
      <point x="56" y="18"/>
      <point x="46" y="21"/>
      <point x="37" y="25" type="curve"/>
      <point x="30" y="2" type="line"/>
      <point x="43" y="-4"/>
      <point x="58" y="-7"/>
      <point x="70" y="-7" type="curve" smooth="yes"/>
      <point x="102" y="-7"/>
      <point x="124" y="10"/>
      <point x="124" y="59" type="curve" smooth="yes"/>
      <point x="124" y="213" type="line" smooth="yes"/>
      <point x="124" y="285"/>
      <point x="160" y="313"/>
      <point x="213" y="319" type="curve"/>
      <point x="219" y="350" type="line"/>
      <point x="105" y="401" type="line"/>
      <point x="105" y="473"/>
      <point x="172" y="531"/>
      <point x="282" y="531" type="curve" smooth="yes"/>
      <point x="389" y="531"/>
      <point x="459" y="478"/>
      <point x="459" y="368" type="curve" smooth="yes"/>
      <point x="459" y="-138" type="line"/>
      <point x="467" y="-136" type="line"/>
      <point x="389" y="-71"/>
      <point x="311" y="-43"/>
      <point x="239" y="-43" type="curve" smooth="yes"/>
      <point x="145" y="-43"/>
      <point x="105" y="-93"/>
      <point x="105" y="-149" type="curve" smooth="yes"/>
    </contour>
  </outline>
</glyph>
<glyph name="loChula-thai.short" format="2">
  <advance width="635"/>
  <anchor x="513" y="0" name="bottom"/>
  <anchor x="513" y="536" name="top"/>
  <outline>
    <contour>
      <point x="126" y="0" type="line"/>
      <point x="156" y="0" type="line"/>
      <point x="278" y="282" type="line" smooth="yes"/>
      <point x="291" y="312"/>
      <point x="304" y="343"/>
      <point x="313" y="369" type="curve"/>
      <point x="317" y="369" type="line"/>
      <point x="326" y="343"/>
      <point x="341" y="312"/>
      <point x="354" y="282" type="curve" smooth="yes"/>
      <point x="474" y="0" type="line"/>
      <point x="504" y="0" type="line"/>
      <point x="559" y="365" type="line" smooth="yes"/>
      <point x="569" y="430"/>
      <point x="559" y="466"/>
      <point x="522" y="486" type="curve"/>
      <point x="522" y="489" type="line"/>
      <point x="568" y="496"/>
      <point x="606" y="519"/>
      <point x="606" y="584" type="curve"/>
      <point x="580" y="584" type="line"/>
      <point x="580" y="524"/>
      <point x="544" y="506"/>
      <point x="461" y="506" type="curve" smooth="yes"/>
      <point x="384" y="506" type="line"/>
      <point x="384" y="484" type="line"/>
      <point x="424" y="484" type="line" smooth="yes"/>
      <point x="525" y="484"/>
      <point x="548" y="458"/>
      <point x="533" y="356" type="curve" smooth="yes"/>
      <point x="510" y="198" type="line" smooth="yes"/>
      <point x="504" y="157"/>
      <point x="493" y="101"/>
      <point x="487" y="41" type="curve"/>
      <point x="483" y="41" type="line"/>
      <point x="462" y="93"/>
      <point x="446" y="132"/>
      <point x="422" y="188" type="curve" smooth="yes"/>
      <point x="327" y="407" type="line"/>
      <point x="303" y="407" type="line"/>
      <point x="210" y="188" type="line" smooth="yes"/>
      <point x="185" y="130"/>
      <point x="171" y="97"/>
      <point x="150" y="45" type="curve"/>
      <point x="146" y="45" type="line"/>
      <point x="140" y="105"/>
      <point x="132" y="157"/>
      <point x="126" y="198" type="curve" smooth="yes"/>
      <point x="80" y="548" type="line"/>
      <point x="53" y="548" type="line"/>
    </contour>
  </outline>
</glyph>
<glyph name="lu-thai.short" format="2">
  <advance width="577"/>
  <anchor x="485" y="-163" name="bottom"/>
  <anchor x="475" y="536" name="top"/>
  <outline>
    <contour>
      <point x="459" y="-163" type="line"/>
      <point x="485" y="-163" type="line"/>
      <point x="485" y="100" type="line"/>
      <point x="459" y="100" type="line"/>
    </contour>
    <component base="phoSamphao-thai"/>
  </outline>
</glyph>
<glyph name="lu_lakkhangyao-thai" format="2">
  <advance width="912"/>
  <outline>
    <contour>
      <point x="458" y="-190" type="line"/>
      <point x="484" y="-190" type="line"/>
      <point x="484" y="375" type="line" smooth="yes"/>
      <point x="484" y="469"/>
      <point x="543" y="531"/>
      <point x="643" y="531" type="curve" smooth="yes"/>
      <point x="735" y="531"/>
      <point x="794" y="478"/>
      <point x="794" y="378" type="curve" smooth="yes"/>
      <point x="794" y="-190" type="line"/>
      <point x="820" y="-190" type="line"/>
      <point x="820" y="384" type="line" smooth="yes"/>
      <point x="820" y="492"/>
      <point x="749" y="556"/>
      <point x="645" y="556" type="curve" smooth="yes"/>
      <point x="559" y="556"/>
      <point x="494" y="512"/>
      <point x="473" y="436" type="curve"/>
      <point x="469" y="436" type="line"/>
      <point x="448" y="506"/>
      <point x="387" y="556"/>
      <point x="282" y="556" type="curve" smooth="yes"/>
      <point x="153" y="556"/>
      <point x="78" y="481"/>
      <point x="78" y="404" type="curve" smooth="yes"/>
      <point x="78" y="385" type="line"/>
      <point x="193" y="340" type="line"/>
      <point x="192" y="337" type="line"/>
      <point x="137" y="324"/>
      <point x="98" y="292"/>
      <point x="98" y="212" type="curve" smooth="yes"/>
      <point x="98" y="61" type="line" smooth="yes"/>
      <point x="98" y="29"/>
      <point x="92" y="15"/>
      <point x="67" y="15" type="curve" smooth="yes"/>
      <point x="56" y="15"/>
      <point x="46" y="18"/>
      <point x="37" y="22" type="curve"/>
      <point x="30" y="-1" type="line"/>
      <point x="43" y="-7"/>
      <point x="58" y="-10"/>
      <point x="71" y="-10" type="curve" smooth="yes"/>
      <point x="102" y="-10"/>
      <point x="124" y="7"/>
      <point x="124" y="56" type="curve" smooth="yes"/>
      <point x="124" y="213" type="line" smooth="yes"/>
      <point x="124" y="285"/>
      <point x="160" y="313"/>
      <point x="213" y="319" type="curve"/>
      <point x="219" y="350" type="line"/>
      <point x="105" y="401" type="line"/>
      <point x="105" y="473"/>
      <point x="174" y="531"/>
      <point x="278" y="531" type="curve" smooth="yes"/>
      <point x="386" y="531"/>
      <point x="458" y="469"/>
      <point x="458" y="372" type="curve" smooth="yes"/>
    </contour>
  </outline>
</glyph>
<glyph name="maiChattawa-thai.narrow" format="2">
  <anchor x="-194" y="536" name="_top"/>
  <anchor x="-310" y="844" name="top"/>
  <outline>
    <contour>
      <point x="-336" y="636" type="line"/>
      <point x="-310" y="636" type="line"/>
      <point x="-310" y="827" type="line"/>
      <point x="-336" y="827" type="line"/>
    </contour>
    <contour>
      <point x="-422" y="718" type="line"/>
      <point x="-224" y="718" type="line"/>
      <point x="-224" y="741" type="line"/>
      <point x="-422" y="741" type="line"/>
    </contour>
  </outline>
</glyph>
<glyph name="maiChattawa-thai.small" format="2">
  <anchor x="-104" y="772" name="_top"/>
  <anchor x="-104" y="989" name="top"/>
  <outline>
    <contour>
      <point x="-132" y="825" type="line"/>
      <point x="-107" y="825" type="line"/>
      <point x="-107" y="971" type="line"/>
      <point x="-132" y="971" type="line"/>
    </contour>
    <contour>
      <point x="-189" y="886" type="line"/>
      <point x="-50" y="886" type="line"/>
      <point x="-50" y="909" type="line"/>
      <point x="-189" y="909" type="line"/>
    </contour>
  </outline>
</glyph>
<glyph name="maiEk-thai.narrow" format="2">
  <anchor x="-194" y="536" name="_top"/>
  <anchor x="-294" y="845" name="top"/>
  <outline>
    <contour>
      <point x="-319" y="636" type="line"/>
      <point x="-293" y="636" type="line"/>
      <point x="-293" y="827" type="line"/>
      <point x="-319" y="827" type="line"/>
    </contour>
  </outline>
</glyph>
<glyph name="maiEk-thai.small" format="2">
  <anchor x="-104" y="772" name="_top"/>
  <anchor x="-104" y="989" name="top"/>
  <outline>
    <contour>
      <point x="-129" y="825" type="line"/>
      <point x="-104" y="825" type="line"/>
      <point x="-104" y="968" type="line"/>
      <point x="-129" y="968" type="line"/>
    </contour>
  </outline>
</glyph>
<glyph name="maiHanaKat-thai.narrow" format="2">
  <anchor x="-194" y="536" name="_top"/>
  <anchor x="-295" y="710" name="top"/>
  <outline>
    <contour>
      <point x="-394" y="636" type="curve" smooth="yes"/>
      <point x="-194" y="636" type="line"/>
      <point x="-194" y="660" type="line"/>
      <point x="-391" y="660" type="line" smooth="yes"/>
      <point x="-422" y="660"/>
      <point x="-433" y="672"/>
      <point x="-433" y="693" type="curve" smooth="yes"/>
      <point x="-433" y="704"/>
      <point x="-429" y="718"/>
      <point x="-425" y="726" type="curve"/>
      <point x="-449" y="730" type="line"/>
      <point x="-454" y="720"/>
      <point x="-458" y="702"/>
      <point x="-458" y="689" type="curve" smooth="yes"/>
      <point x="-458" y="659"/>
      <point x="-439" y="636"/>
    </contour>
  </outline>
</glyph>
<glyph name="maiTho-thai.narrow" format="2">
  <anchor x="-194" y="536" name="_top"/>
  <anchor x="-281" y="845" name="top"/>
  <outline>
    <contour>
      <point x="-419" y="636" type="line"/>
      <point x="-194" y="636" type="line"/>
      <point x="-194" y="660" type="line"/>
      <point x="-333" y="660" type="line"/>
      <point x="-334" y="663" type="line"/>
      <point x="-301" y="682"/>
      <point x="-276" y="711"/>
      <point x="-276" y="748" type="curve" smooth="yes"/>
      <point x="-276" y="793"/>
      <point x="-305" y="821"/>
      <point x="-353" y="821" type="curve" smooth="yes"/>
      <point x="-370" y="821"/>
      <point x="-392" y="816"/>
      <point x="-416" y="803" type="curve"/>
      <point x="-408" y="782" type="line"/>
      <point x="-392" y="790"/>
      <point x="-372" y="798"/>
      <point x="-356" y="798" type="curve" smooth="yes"/>
      <point x="-319" y="798"/>
      <point x="-302" y="778"/>
      <point x="-302" y="748" type="curve" smooth="yes"/>
      <point x="-302" y="700"/>
      <point x="-353" y="664"/>
      <point x="-419" y="653" type="curve"/>
    </contour>
  </outline>
</glyph>
<glyph name="maiTho-thai.small" format="2">
  <anchor x="-104" y="772" name="_top"/>
  <anchor x="-104" y="989" name="top"/>
  <outline>
    <contour>
      <point x="-202" y="825" type="line"/>
      <point x="-4" y="825" type="line"/>
      <point x="-4" y="849" type="line"/>
      <point x="-124" y="849" type="line"/>
      <point x="-125" y="852" type="line"/>
      <point x="-101" y="866"/>
      <point x="-89" y="886"/>
      <point x="-89" y="913" type="curve" smooth="yes"/>
      <point x="-89" y="948"/>
      <point x="-111" y="968"/>
      <point x="-147" y="968" type="curve" smooth="yes"/>
      <point x="-164" y="968"/>
      <point x="-181" y="964"/>
      <point x="-201" y="954" type="curve"/>
      <point x="-192" y="932" type="line"/>
      <point x="-179" y="939"/>
      <point x="-166" y="945"/>
      <point x="-150" y="945" type="curve" smooth="yes"/>
      <point x="-126" y="945"/>
      <point x="-115" y="933"/>
      <point x="-115" y="913" type="curve" smooth="yes"/>
      <point x="-115" y="885"/>
      <point x="-136" y="853"/>
      <point x="-202" y="842" type="curve"/>
    </contour>
  </outline>
</glyph>
<glyph name="maiTri-thai.narrow" format="2">
  <anchor x="-194" y="536" name="_top"/>
  <anchor x="-304" y="845" name="top"/>
  <outline>
    <contour>
      <point x="-414" y="631" type="curve" smooth="yes"/>
      <point x="-400" y="631"/>
      <point x="-388" y="634"/>
      <point x="-380" y="638" type="curve"/>
      <point x="-386" y="659" type="line"/>
      <point x="-392" y="656"/>
      <point x="-401" y="654"/>
      <point x="-410" y="654" type="curve" smooth="yes"/>
      <point x="-442" y="654"/>
      <point x="-466" y="677"/>
      <point x="-466" y="723" type="curve" smooth="yes"/>
      <point x="-466" y="770"/>
      <point x="-440" y="789"/>
      <point x="-415" y="792" type="curve"/>
      <point x="-371" y="761" type="line"/>
      <point x="-362" y="761" type="line"/>
      <point x="-319" y="792" type="line"/>
      <point x="-291" y="784"/>
      <point x="-267" y="763"/>
      <point x="-267" y="723" type="curve" smooth="yes"/>
      <point x="-267" y="686"/>
      <point x="-287" y="661"/>
      <point x="-315" y="651" type="curve"/>
      <point x="-315" y="636" type="line"/>
      <point x="-194" y="636" type="line"/>
      <point x="-194" y="657" type="line"/>
      <point x="-267" y="657" type="line"/>
      <point x="-268" y="660" type="line"/>
      <point x="-249" y="676"/>
      <point x="-241" y="700"/>
      <point x="-241" y="725" type="curve" smooth="yes"/>
      <point x="-241" y="778"/>
      <point x="-277" y="807"/>
      <point x="-318" y="819" type="curve"/>
      <point x="-367" y="783" type="line"/>
      <point x="-416" y="819" type="line"/>
      <point x="-460" y="813"/>
      <point x="-492" y="779"/>
      <point x="-492" y="722" type="curve" smooth="yes"/>
      <point x="-492" y="664"/>
      <point x="-459" y="631"/>
    </contour>
  </outline>
</glyph>
<glyph name="maiTri-thai.small" format="2">
  <anchor x="-104" y="772" name="_top"/>
  <anchor x="-104" y="989" name="top"/>
  <outline>
    <contour>
      <point x="-179" y="820" type="curve" smooth="yes"/>
      <point x="-166" y="820"/>
      <point x="-155" y="823"/>
      <point x="-149" y="826" type="curve"/>
      <point x="-155" y="847" type="line"/>
      <point x="-163" y="844"/>
      <point x="-169" y="843"/>
      <point x="-176" y="843" type="curve" smooth="yes"/>
      <point x="-210" y="843"/>
      <point x="-227" y="867"/>
      <point x="-227" y="897" type="curve" smooth="yes"/>
      <point x="-227" y="934"/>
      <point x="-201" y="946"/>
      <point x="-184" y="949" type="curve"/>
      <point x="-137" y="914" type="line"/>
      <point x="-131" y="914" type="line"/>
      <point x="-84" y="948" type="line"/>
      <point x="-68" y="943"/>
      <point x="-48" y="928"/>
      <point x="-48" y="899" type="curve" smooth="yes"/>
      <point x="-48" y="872"/>
      <point x="-65" y="850"/>
      <point x="-92" y="840" type="curve"/>
      <point x="-92" y="825" type="line"/>
      <point x="44" y="825" type="line"/>
      <point x="44" y="846" type="line"/>
      <point x="-42" y="846" type="line"/>
      <point x="-43" y="849" type="line"/>
      <point x="-27" y="863"/>
      <point x="-22" y="885"/>
      <point x="-22" y="902" type="curve" smooth="yes"/>
      <point x="-22" y="937"/>
      <point x="-44" y="962"/>
      <point x="-87" y="972" type="curve"/>
      <point x="-134" y="937" type="line"/>
      <point x="-181" y="972" type="line"/>
      <point x="-220" y="966"/>
      <point x="-253" y="943"/>
      <point x="-253" y="896" type="curve" smooth="yes"/>
      <point x="-253" y="851"/>
      <point x="-223" y="820"/>
    </contour>
  </outline>
</glyph>
<glyph name="maitaikhu-thai.narrow" format="2">
  <anchor x="-194" y="536" name="_top"/>
  <anchor x="-341" y="824" name="top"/>
  <outline>
    <contour>
      <point x="-260" y="621" type="curve" smooth="yes"/>
      <point x="-224" y="621"/>
      <point x="-192" y="642"/>
      <point x="-192" y="694" type="curve" smooth="yes"/>
      <point x="-192" y="708" type="line"/>
      <point x="-218" y="708" type="line"/>
      <point x="-218" y="694" type="line" smooth="yes"/>
      <point x="-218" y="661"/>
      <point x="-234" y="646"/>
      <point x="-263" y="646" type="curve" smooth="yes"/>
      <point x="-294" y="646"/>
      <point x="-316" y="669"/>
      <point x="-328" y="708" type="curve"/>
      <point x="-343" y="708" type="line"/>
      <point x="-397" y="649" type="line"/>
      <point x="-437" y="649"/>
      <point x="-463" y="676"/>
      <point x="-463" y="721" type="curve" smooth="yes"/>
      <point x="-463" y="777"/>
      <point x="-432" y="802"/>
      <point x="-386" y="802" type="curve" smooth="yes"/>
      <point x="-193" y="802" type="line"/>
      <point x="-193" y="827" type="line"/>
      <point x="-393" y="827" type="line" smooth="yes"/>
      <point x="-447" y="827"/>
      <point x="-490" y="790"/>
      <point x="-490" y="725" type="curve" smooth="yes"/>
      <point x="-490" y="660"/>
      <point x="-453" y="624"/>
      <point x="-389" y="624" type="curve"/>
      <point x="-342" y="679" type="line"/>
      <point x="-325" y="643"/>
      <point x="-299" y="621"/>
    </contour>
  </outline>
</glyph>
<glyph name="ru_lakkhangyao-thai" format="2">
  <advance width="911"/>
  <outline>
    <contour>
      <point x="457" y="-190" type="line"/>
      <point x="483" y="-190" type="line"/>
      <point x="483" y="375" type="line" smooth="yes"/>
      <point x="483" y="469"/>
      <point x="542" y="531"/>
      <point x="642" y="531" type="curve" smooth="yes"/>
      <point x="734" y="531"/>
      <point x="793" y="478"/>
      <point x="793" y="378" type="curve" smooth="yes"/>
      <point x="793" y="-190" type="line"/>
      <point x="819" y="-190" type="line"/>
      <point x="819" y="384" type="line" smooth="yes"/>
      <point x="819" y="492"/>
      <point x="748" y="556"/>
      <point x="644" y="556" type="curve" smooth="yes"/>
      <point x="558" y="556"/>
      <point x="493" y="512"/>
      <point x="472" y="436" type="curve"/>
      <point x="468" y="436" type="line"/>
      <point x="447" y="506"/>
      <point x="386" y="556"/>
      <point x="281" y="556" type="curve" smooth="yes"/>
      <point x="152" y="556"/>
      <point x="77" y="481"/>
      <point x="77" y="404" type="curve" smooth="yes"/>
      <point x="77" y="385" type="line"/>
      <point x="192" y="340" type="line"/>
      <point x="191" y="337" type="line"/>
      <point x="136" y="324"/>
      <point x="90" y="292"/>
      <point x="90" y="212" type="curve" smooth="yes"/>
      <point x="90" y="60" type="line" smooth="yes"/>
      <point x="90" y="11"/>
      <point x="124" y="-10"/>
      <point x="162" y="-10" type="curve" smooth="yes"/>
      <point x="178" y="-10"/>
      <point x="199" y="-6"/>
      <point x="214" y="1" type="curve"/>
      <point x="208" y="23" type="line"/>
      <point x="197" y="19"/>
      <point x="178" y="15"/>
      <point x="163" y="15" type="curve" smooth="yes"/>
      <point x="135" y="15"/>
      <point x="116" y="30"/>
      <point x="116" y="66" type="curve" smooth="yes"/>
      <point x="116" y="213" type="line" smooth="yes"/>
      <point x="116" y="285"/>
      <point x="159" y="313"/>
      <point x="212" y="319" type="curve"/>
      <point x="218" y="350" type="line"/>
      <point x="104" y="401" type="line"/>
      <point x="104" y="473"/>
      <point x="173" y="531"/>
      <point x="277" y="531" type="curve" smooth="yes"/>
      <point x="385" y="531"/>
      <point x="457" y="469"/>
      <point x="457" y="372" type="curve" smooth="yes"/>
    </contour>
  </outline>
</glyph>
<glyph name="saraI-thai.narrow" format="2">
  <anchor x="-194" y="536" name="_top"/>
  <anchor x="-194" y="714" name="top"/>
  <outline>
    <contour>
      <point x="-512" y="636" type="line"/>
      <point x="-194" y="636" type="line"/>
      <point x="-194" y="660" type="line"/>
      <point x="-484" y="660" type="line"/>
      <point x="-512" y="650" type="line"/>
    </contour>
  </outline>
</glyph>
<glyph name="saraUe-thai.narrow" format="2">
  <anchor x="-194" y="536" name="_top"/>
  <anchor x="-243" y="772" name="top"/>
  <outline>
    <contour>
      <point x="-511" y="636" type="line"/>
      <point x="-252" y="636" type="line" smooth="yes"/>
      <point x="-212" y="636"/>
      <point x="-179" y="657"/>
      <point x="-179" y="700" type="curve" smooth="yes"/>
      <point x="-179" y="743"/>
      <point x="-210" y="764"/>
      <point x="-248" y="764" type="curve" smooth="yes"/>
      <point x="-285" y="764"/>
      <point x="-316" y="744"/>
      <point x="-316" y="701" type="curve" smooth="yes"/>
      <point x="-316" y="679"/>
      <point x="-304" y="657"/>
      <point x="-285" y="647" type="curve"/>
      <point x="-281" y="660" type="line"/>
      <point x="-483" y="660" type="line"/>
      <point x="-511" y="650" type="line"/>
    </contour>
    <contour>
      <point x="-248" y="660" type="curve" smooth="yes"/>
      <point x="-272" y="660"/>
      <point x="-290" y="675"/>
      <point x="-290" y="700" type="curve" smooth="yes"/>
      <point x="-290" y="725"/>
      <point x="-272" y="740"/>
      <point x="-248" y="740" type="curve" smooth="yes"/>
      <point x="-224" y="740"/>
      <point x="-206" y="725"/>
      <point x="-206" y="700" type="curve" smooth="yes"/>
      <point x="-206" y="675"/>
      <point x="-224" y="660"/>
    </contour>
  </outline>
</glyph>
<glyph name="saraUee-thai.narrow" format="2">
  <anchor x="-194" y="536" name="_top"/>
  <anchor x="-234" y="772" name="top"/>
  <outline>
    <contour>
      <point x="-512" y="636" type="line"/>
      <point x="-194" y="636" type="line"/>
      <point x="-194" y="660" type="line"/>
      <point x="-484" y="660" type="line"/>
      <point x="-512" y="650" type="line"/>
    </contour>
    <contour>
      <point x="-300" y="654" type="line"/>
      <point x="-277" y="654" type="line"/>
      <point x="-277" y="743" type="line"/>
      <point x="-300" y="743" type="line"/>
    </contour>
    <contour>
      <point x="-217" y="654" type="line"/>
      <point x="-194" y="654" type="line"/>
      <point x="-194" y="743" type="line"/>
      <point x="-217" y="743" type="line"/>
    </contour>
  </outline>
</glyph>
<glyph name="thanthakhat-thai.narrow" format="2">
  <anchor x="-194" y="536" name="_top"/>
  <anchor x="-283" y="713" name="top"/>
  <outline>
    <contour>
      <point x="-397" y="606" type="curve"/>
      <point x="-373" y="611" type="line"/>
      <point x="-379" y="620"/>
      <point x="-382" y="631"/>
      <point x="-382" y="641" type="curve" smooth="yes"/>
      <point x="-382" y="662"/>
      <point x="-372" y="674"/>
      <point x="-339" y="674" type="curve" smooth="yes"/>
      <point x="-193" y="674" type="line"/>
      <point x="-193" y="698" type="line"/>
      <point x="-345" y="698" type="line" smooth="yes"/>
      <point x="-384" y="698"/>
      <point x="-407" y="678"/>
      <point x="-407" y="646" type="curve" smooth="yes"/>
      <point x="-407" y="631"/>
      <point x="-404" y="617"/>
    </contour>
  </outline>
</glyph>
<glyph name="thanthakhat-thai.small" format="2">
  <anchor x="-104" y="772" name="_top"/>
  <anchor x="-104" y="989" name="top"/>
  <outline>
    <contour>
      <point x="-191" y="821" type="curve"/>
      <point x="-167" y="826" type="line"/>
      <point x="-173" y="835"/>
      <point x="-176" y="846"/>
      <point x="-176" y="856" type="curve" smooth="yes"/>
      <point x="-176" y="877"/>
      <point x="-166" y="889"/>
      <point x="-133" y="889" type="curve" smooth="yes"/>
      <point x="-17" y="889" type="line"/>
      <point x="-17" y="913" type="line"/>
      <point x="-139" y="913" type="line" smooth="yes"/>
      <point x="-178" y="913"/>
      <point x="-201" y="893"/>
      <point x="-201" y="861" type="curve" smooth="yes"/>
      <point x="-201" y="846"/>
      <point x="-198" y="832"/>
    </contour>
  </outline>
</glyph>
<glyph name="thoThan-thai.less" format="2">
  <advance width="532"/>
  <anchor x="380" y="0" name="bottom"/>
  <anchor x="448" y="536" name="top"/>
  <outline>
    <contour>
      <point x="166" y="0" type="line"/>
      <point x="194" y="0" type="line" smooth="yes"/>
      <point x="356" y="0"/>
      <point x="440" y="71"/>
      <point x="440" y="274" type="curve" smooth="yes"/>
      <point x="440" y="375"/>
      <point x="424" y="447"/>
      <point x="385" y="493" type="curve" smooth="yes"/>
      <point x="351" y="534"/>
      <point x="299" y="556"/>
      <point x="222" y="556" type="curve" smooth="yes"/>
      <point x="149" y="556"/>
      <point x="83" y="531"/>
      <point x="45" y="511" type="curve"/>
      <point x="45" y="482" type="line"/>
      <point x="98" y="512"/>
      <point x="155" y="531"/>
      <point x="215" y="531" type="curve" smooth="yes"/>
      <point x="355" y="531"/>
      <point x="412" y="464"/>
      <point x="412" y="275" type="curve" smooth="yes"/>
      <point x="412" y="82"/>
      <point x="326" y="25"/>
      <point x="207" y="25" type="curve" smooth="yes"/>
      <point x="192" y="25" type="line"/>
      <point x="192" y="300" type="line"/>
      <point x="92" y="300" type="line"/>
      <point x="92" y="277" type="line"/>
      <point x="166" y="277" type="line"/>
    </contour>
    <contour>
      <point x="379" y="479" type="line"/>
      <point x="438" y="493"/>
      <point x="482" y="528"/>
      <point x="482" y="584" type="curve"/>
      <point x="454" y="584" type="line"/>
      <point x="454" y="533"/>
      <point x="415" y="509"/>
      <point x="365" y="498" type="curve"/>
    </contour>
  </outline>
</glyph>
<glyph name="toPatak-thai.short" format="2">
  <advance width="577"/>
  <anchor x="485" y="-163" name="bottom"/>
  <anchor x="475" y="536" name="top"/>
  <outline>
    <contour>
      <point x="80" y="-163" type="line"/>
      <point x="106" y="-163" type="line"/>
      <point x="106" y="-153" type="line" smooth="yes"/>
      <point x="106" y="-108"/>
      <point x="126" y="-78"/>
      <point x="172" y="-78" type="curve" smooth="yes"/>
      <point x="223" y="-78"/>
      <point x="259" y="-118"/>
      <point x="284" y="-163" type="curve"/>
      <point x="292" y="-163" type="line"/>
      <point x="376" y="-86" type="line"/>
      <point x="462" y="-163" type="line"/>
      <point x="485" y="-163" type="line"/>
      <point x="485" y="374" type="line" smooth="yes"/>
      <point x="485" y="492"/>
      <point x="403" y="556"/>
      <point x="283" y="556" type="curve" smooth="yes"/>
      <point x="152" y="556"/>
      <point x="78" y="481"/>
      <point x="78" y="404" type="curve" smooth="yes"/>
      <point x="78" y="385" type="line"/>
      <point x="193" y="340" type="line"/>
      <point x="192" y="337" type="line"/>
      <point x="137" y="324"/>
      <point x="98" y="292"/>
      <point x="98" y="212" type="curve" smooth="yes"/>
      <point x="98" y="64" type="line" smooth="yes"/>
      <point x="98" y="32"/>
      <point x="92" y="18"/>
      <point x="67" y="18" type="curve" smooth="yes"/>
      <point x="56" y="18"/>
      <point x="46" y="21"/>
      <point x="37" y="25" type="curve"/>
      <point x="30" y="2" type="line"/>
      <point x="43" y="-4"/>
      <point x="58" y="-7"/>
      <point x="70" y="-7" type="curve" smooth="yes"/>
      <point x="102" y="-7"/>
      <point x="124" y="10"/>
      <point x="124" y="59" type="curve" smooth="yes"/>
      <point x="124" y="213" type="line" smooth="yes"/>
      <point x="124" y="285"/>
      <point x="160" y="313"/>
      <point x="213" y="319" type="curve"/>
      <point x="219" y="350" type="line"/>
      <point x="105" y="401" type="line"/>
      <point x="105" y="473"/>
      <point x="172" y="531"/>
      <point x="282" y="531" type="curve" smooth="yes"/>
      <point x="389" y="531"/>
      <point x="459" y="478"/>
      <point x="459" y="368" type="curve" smooth="yes"/>
      <point x="459" y="-144" type="line"/>
      <point x="468" y="-140" type="line"/>
      <point x="376" y="-57" type="line"/>
      <point x="293" y="-135" type="line"/>
      <point x="268" y="-91"/>
      <point x="227" y="-53"/>
      <point x="170" y="-53" type="curve" smooth="yes"/>
      <point x="114" y="-53"/>
      <point x="80" y="-91"/>
      <point x="80" y="-149" type="curve" smooth="yes"/>
    </contour>
  </outline>
</glyph>
<glyph name="yoYing-thai.less" format="2">
  <advance width="880"/>
  <anchor x="768" y="0" name="bottom"/>
  <anchor x="788" y="536" name="top"/>
  <outline>
    <contour>
      <point x="607" y="-10" type="curve" smooth="yes"/>
      <point x="717" y="-10"/>
      <point x="788" y="53"/>
      <point x="788" y="154" type="curve" smooth="yes"/>
      <point x="788" y="548" type="line"/>
      <point x="762" y="548" type="line"/>
      <point x="762" y="157" type="line" smooth="yes"/>
      <point x="762" y="62"/>
      <point x="695" y="15"/>
      <point x="607" y="15" type="curve" smooth="yes"/>
      <point x="519" y="15"/>
      <point x="456" y="62"/>
      <point x="456" y="157" type="curve" smooth="yes"/>
      <point x="456" y="374" type="line" smooth="yes"/>
      <point x="456" y="499"/>
      <point x="378" y="556"/>
      <point x="268" y="556" type="curve" smooth="yes"/>
      <point x="149" y="556"/>
      <point x="77" y="488"/>
      <point x="77" y="404" type="curve" smooth="yes"/>
      <point x="77" y="385" type="line"/>
      <point x="192" y="340" type="line"/>
      <point x="191" y="337" type="line"/>
      <point x="136" y="324"/>
      <point x="90" y="292"/>
      <point x="90" y="212" type="curve" smooth="yes"/>
      <point x="90" y="88" type="line" smooth="yes"/>
      <point x="90" y="20"/>
      <point x="133" y="-7"/>
      <point x="192" y="-7" type="curve" smooth="yes"/>
      <point x="215" y="-7"/>
      <point x="233" y="-3"/>
      <point x="253" y="5" type="curve"/>
      <point x="247" y="28" type="line"/>
      <point x="232" y="22"/>
      <point x="210" y="17"/>
      <point x="191" y="17" type="curve" smooth="yes"/>
      <point x="146" y="17"/>
      <point x="116" y="40"/>
      <point x="116" y="89" type="curve" smooth="yes"/>
      <point x="116" y="213" type="line" smooth="yes"/>
      <point x="116" y="285"/>
      <point x="159" y="313"/>
      <point x="212" y="319" type="curve"/>
      <point x="218" y="350" type="line"/>
      <point x="104" y="401" type="line"/>
      <point x="104" y="480"/>
      <point x="169" y="531"/>
      <point x="267" y="531" type="curve" smooth="yes"/>
      <point x="364" y="531"/>
      <point x="430" y="485"/>
      <point x="430" y="368" type="curve" smooth="yes"/>
      <point x="430" y="154" type="line" smooth="yes"/>
      <point x="430" y="53"/>
      <point x="497" y="-10"/>
    </contour>
  </outline>
</glyph>
